<svg width="20" height="20" viewBox="0 0 20 20" fill="none" xmlns="http://www.w3.org/2000/svg">
<path d="M19.2317 10.1569C19.2317 9.64961 18.8205 9.23843 18.3133 9.23843C17.806 9.23843 17.3948 9.64961 17.3948 10.1569H19.2317ZM10.0475 2.8095C10.5547 2.8095 10.9659 2.39831 10.9659 1.89108C10.9659 1.38385 10.5547 0.972656 10.0475 0.972656V2.8095ZM16.9356 17.5042H3.15933V19.341H16.9356V17.5042ZM2.70012 17.045V3.26871H0.863281V17.045H2.70012ZM17.3948 10.1569V17.045H19.2317V10.1569H17.3948ZM3.15933 2.8095H10.0475V0.972656H3.15933V2.8095ZM3.15933 17.5042C2.90572 17.5042 2.70012 17.2986 2.70012 17.045H0.863281C0.863281 18.3131 1.89125 19.341 3.15933 19.341V17.5042ZM16.9356 19.341C18.2037 19.341 19.2317 18.3131 19.2317 17.045H17.3948C17.3948 17.2986 17.1892 17.5042 16.9356 17.5042V19.341ZM2.70012 3.26871C2.70012 3.01509 2.90571 2.8095 3.15933 2.8095V0.972656C1.89126 0.972656 0.863281 2.00063 0.863281 3.26871H2.70012Z" fill="#0B9ABD"/>
<path fill-rule="evenodd" clip-rule="evenodd" d="M7.31267 11.3837L2.4023 15.8849C2.0284 16.2276 1.44744 16.2024 1.10469 15.8285C0.761942 15.4546 0.787202 14.8736 1.16111 14.5309L6.07146 10.0297C6.07147 10.0297 6.07148 10.0297 6.07148 10.0297C6.75647 9.40176 7.80255 9.38432 8.50809 9.98911L14.3189 14.9698C14.704 15.2999 14.7486 15.8797 14.4185 16.2648C14.0884 16.6499 13.5086 16.6945 13.1235 16.3644L7.31267 11.3837Z" fill="#0B9ABD"/>
<path fill-rule="evenodd" clip-rule="evenodd" d="M14.7247 11.829L14.7247 11.829L12.5327 14.0211C12.174 14.3797 11.5925 14.3797 11.2338 14.0211C10.8752 13.6624 10.8752 13.0809 11.2338 12.7222L13.4259 10.5302C14.0722 9.88381 15.0955 9.81114 15.8268 10.3596L15.8268 10.3596L18.8632 12.6369C19.269 12.9412 19.3513 13.5169 19.0469 13.9227C18.7426 14.3285 18.1669 14.4107 17.7612 14.1064L14.7247 11.8291L14.7247 11.8291L14.7247 11.829Z" fill="#0B9ABD"/>
<path fill-rule="evenodd" clip-rule="evenodd" d="M16.018 0.972656C16.5253 0.972656 16.9364 1.38385 16.9364 1.89108V7.40159C16.9364 7.90882 16.5253 8.32001 16.018 8.32001C15.5108 8.32001 15.0996 7.90882 15.0996 7.40159V1.89108C15.0996 1.38385 15.5108 0.972656 16.018 0.972656Z" fill="#0B9ABD"/>
<path fill-rule="evenodd" clip-rule="evenodd" d="M15.3697 1.24166C15.7284 0.88299 16.3099 0.88299 16.6686 1.24166L18.9646 3.5377C19.3233 3.89637 19.3233 4.47788 18.9646 4.83655C18.606 5.19521 18.0244 5.19521 17.6658 4.83655L16.0192 3.18992L14.3725 4.83655C14.0139 5.19521 13.4324 5.19521 13.0737 4.83655C12.715 4.47788 12.715 3.89637 13.0737 3.5377L15.3697 1.24166Z" fill="#0B9ABD"/>
</svg>