<svg width="178" height="54" viewBox="0 0 178 54" fill="none" xmlns="http://www.w3.org/2000/svg">
<g clip-path="url(#clip0_2133_54919)">
<path d="M171.407 54H6.59259C2.96667 54 0 50.9625 0 47.25V6.75C0 3.0375 2.96667 0 6.59259 0H171.407C175.033 0 178 3.0375 178 6.75V47.25C178 50.9625 175.033 54 171.407 54Z" fill="#12100B"/>
<path d="M171.407 0H6.59259C2.96667 0 0 3.0375 0 6.75V47.25C0 50.9625 2.96667 54 6.59259 54H171.407C175.033 54 178 50.9625 178 47.25V6.75C178 3.0375 175.033 0 171.407 0ZM171.407 1.08C174.466 1.08 176.945 3.618 176.945 6.75V47.25C176.945 50.382 174.466 52.92 171.407 52.92H6.59259C3.53363 52.92 1.05481 50.382 1.05481 47.25V6.75C1.05481 3.618 3.53363 1.08 6.59259 1.08H171.407Z" fill="#AFACAB"/>
<path d="M60.423 12.3877C60.3427 12.136 60.2368 11.9105 60.1053 11.7111C59.9763 11.5092 59.8218 11.3373 59.6417 11.1952C59.464 11.0532 59.262 10.9448 59.0356 10.87C58.8092 10.7953 58.561 10.7579 58.2908 10.7579C57.8478 10.7579 57.445 10.875 57.0823 11.1093C56.7197 11.3435 56.4312 11.6887 56.2171 12.1447C56.0029 12.6008 55.8958 13.1603 55.8958 13.8232C55.8958 14.4861 56.0041 15.0455 56.2207 15.5016C56.4373 15.9576 56.7306 16.3028 57.1006 16.5371C57.4706 16.7713 57.8868 16.8884 58.3492 16.8884C58.7776 16.8884 59.1549 16.795 59.481 16.6081C59.8096 16.4187 60.0652 16.152 60.2477 15.8081C60.4327 15.4617 60.5252 15.0543 60.5252 14.5857L60.8027 14.6456H58.5537V13.8232H61.4014V14.6456C61.4014 15.2761 61.27 15.8243 61.0071 16.2903C60.7467 16.7564 60.3865 17.1177 59.9264 17.3744C59.4689 17.6286 58.9431 17.7557 58.3492 17.7557C57.6872 17.7557 57.1055 17.5962 56.6041 17.2772C56.1051 16.9582 55.7157 16.5047 55.4357 15.9165C55.1583 15.3284 55.0195 14.6306 55.0195 13.8232C55.0195 13.2176 55.0986 12.6731 55.2568 12.1896C55.4175 11.7036 55.6438 11.2899 55.9359 10.9485C56.228 10.6071 56.5736 10.3454 56.9728 10.1635C57.372 9.98159 57.8113 9.89062 58.2908 9.89062C58.6851 9.89062 59.0526 9.95168 59.3934 10.0738C59.7366 10.1934 60.0421 10.3641 60.3098 10.5859C60.58 10.8052 60.8051 11.0681 60.9852 11.3747C61.1653 11.6787 61.2895 12.0164 61.3576 12.3877H60.423Z" fill="white"/>
<path d="M62.9522 17.651V9.99529H67.4648V10.8177H63.8576V13.4045H67.2311V14.2269H63.8576V16.8286H67.5232V17.651H62.9522Z" fill="white"/>
<path d="M68.6879 10.8177V9.99529H74.2958V10.8177H71.9445V17.651H71.0391V10.8177H68.6879Z" fill="white"/>
<path d="M79.4902 9.99529V17.651H78.5848V9.99529H79.4902Z" fill="white"/>
<path d="M80.8967 10.8177V9.99529H86.5046V10.8177H84.1534V17.651H83.248V10.8177H80.8967Z" fill="white"/>
<path d="M95.9994 13.8232C95.9994 14.6306 95.857 15.3284 95.5722 15.9165C95.2875 16.5047 94.8968 16.9582 94.4003 17.2772C93.9037 17.5962 93.3366 17.7557 92.6989 17.7557C92.0612 17.7557 91.4941 17.5962 90.9976 17.2772C90.501 16.9582 90.1104 16.5047 89.8256 15.9165C89.5408 15.3284 89.3984 14.6306 89.3984 13.8232C89.3984 13.0157 89.5408 12.3179 89.8256 11.7298C90.1104 11.1417 90.501 10.6881 90.9976 10.3691C91.4941 10.0501 92.0612 9.89062 92.6989 9.89062C93.3366 9.89062 93.9037 10.0501 94.4003 10.3691C94.8968 10.6881 95.2875 11.1417 95.5722 11.7298C95.857 12.3179 95.9994 13.0157 95.9994 13.8232ZM95.1232 13.8232C95.1232 13.1603 95.0149 12.6008 94.7982 12.1447C94.584 11.6887 94.2932 11.3435 93.9257 11.1093C93.5606 10.875 93.1516 10.7579 92.6989 10.7579C92.2462 10.7579 91.8361 10.875 91.4685 11.1093C91.1034 11.3435 90.8126 11.6887 90.596 12.1447C90.3818 12.6008 90.2747 13.1603 90.2747 13.8232C90.2747 14.4861 90.3818 15.0455 90.596 15.5016C90.8126 15.9576 91.1034 16.3028 91.4685 16.5371C91.8361 16.7713 92.2462 16.8884 92.6989 16.8884C93.1516 16.8884 93.5606 16.7713 93.9257 16.5371C94.2932 16.3028 94.584 15.9576 94.7982 15.5016C95.0149 15.0455 95.1232 14.4861 95.1232 13.8232Z" fill="white"/>
<path d="M103.451 9.99529V17.651H102.575L98.5003 11.6401H98.4273V17.651H97.5219V9.99529H98.3981L102.487 16.0212H102.56V9.99529H103.451Z" fill="white"/>
<path fill-rule="evenodd" clip-rule="evenodd" d="M78.6702 10.0828V17.5631H79.4043V10.0828H78.6702Z" fill="white"/>
<path fill-rule="evenodd" clip-rule="evenodd" d="M92.6987 9.97818C92.0756 9.97818 91.5245 10.1338 91.0428 10.4432C90.5609 10.7528 90.1805 11.1936 89.9021 11.7686C89.6244 12.3421 89.4839 13.026 89.4839 13.823C89.4839 14.62 89.6244 15.3038 89.9021 15.8774C90.1805 16.4524 90.5609 16.8931 91.0428 17.2027C91.5245 17.5122 92.0756 17.6678 92.6987 17.6678C93.3217 17.6678 93.8728 17.5122 94.3545 17.2027C94.8364 16.8931 95.2168 16.4524 95.4952 15.8774C95.7729 15.3038 95.9135 14.62 95.9135 13.823C95.9135 13.026 95.7729 12.3421 95.4952 11.7686C95.2168 11.1936 94.8364 10.7528 94.3545 10.4432C93.8728 10.1338 93.3217 9.97818 92.6987 9.97818ZM90.9518 10.2946C91.4631 9.96611 92.0463 9.80273 92.6987 9.80273C93.351 9.80273 93.9342 9.96611 94.4456 10.2946C94.9567 10.623 95.3576 11.0894 95.6487 11.6907C95.9406 12.2934 96.0848 13.0051 96.0848 13.823C96.0848 14.6409 95.9406 15.3526 95.6487 15.9553C95.3576 16.5566 94.9567 17.023 94.4456 17.3513C93.9342 17.6799 93.351 17.8432 92.6987 17.8432C92.0463 17.8432 91.4631 17.6799 90.9518 17.3513C90.4406 17.023 90.0397 16.5566 89.7486 15.9553C89.4567 15.3526 89.3125 14.6409 89.3125 13.823C89.3125 13.0051 89.4567 12.2934 89.7486 11.6907C90.0397 11.0894 90.4406 10.623 90.9518 10.2946ZM97.4359 9.9074H98.4426L102.474 15.8486V9.9074H103.536V17.7386H102.53L98.5127 11.8124V17.7386H97.4359V9.9074ZM97.6073 10.0828V17.5631H98.3414V11.5522H98.5449L102.619 17.5631H103.365V10.0828H102.646V16.1087H102.442L98.353 10.0828H97.6073ZM91.423 11.0346C91.8048 10.7913 92.2307 10.67 92.6987 10.67C93.1666 10.67 93.5914 10.7913 93.9709 11.0348C94.3539 11.279 94.6549 11.6376 94.8751 12.1063C95.0988 12.5774 95.2086 13.1508 95.2086 13.823C95.2086 14.4952 95.0988 15.0686 94.8751 15.5396C94.6549 16.0084 94.3539 16.3671 93.9708 16.6113C93.5914 16.8547 93.1666 16.976 92.6987 16.976C92.2307 16.976 91.8048 16.8547 91.423 16.6114C91.0424 16.3671 90.7412 16.0084 90.5186 15.5398C90.2974 15.0688 90.1887 14.4951 90.1887 13.823C90.1887 13.1508 90.2973 12.5775 90.5185 12.1065C90.7411 11.638 91.0424 11.2788 91.423 11.0346ZM91.5136 11.1835C91.1642 11.4078 90.8835 11.7394 90.6728 12.1827C90.4657 12.6238 90.3601 13.1694 90.3601 13.823C90.3601 14.4766 90.4657 15.0222 90.6728 15.4632C90.8835 15.9066 91.1642 16.2382 91.5136 16.4625C91.8669 16.6876 92.2612 16.8006 92.6987 16.8006C93.1361 16.8006 93.5291 16.6876 93.8799 16.4626C94.2317 16.2383 94.5126 15.9066 94.7208 15.4634C94.9302 15.0224 95.0372 14.4765 95.0372 13.823C95.0372 13.1695 94.9304 12.6239 94.7209 12.1829C94.5128 11.7397 94.232 11.4078 93.8801 11.1836C93.5294 10.9585 93.1361 10.8454 92.6987 10.8454C92.2612 10.8454 91.8669 10.9584 91.5136 11.1835Z" fill="white"/>
<path d="M141.002 40.5001H143.468V23.6251H141.002V40.5001ZM163.166 29.7001L160.345 37.0171H160.266L157.339 29.7001H154.688L159.079 39.9331L156.574 45.6166H159.145L165.909 29.7001H163.18H163.166ZM149.217 38.5831C148.412 38.5831 147.292 38.1646 147.292 37.1521C147.292 35.8561 148.689 35.3566 149.902 35.3566C150.983 35.3566 151.498 35.5996 152.157 35.9236C151.959 37.4896 150.654 38.5966 149.23 38.5966L149.217 38.5831ZM149.52 29.3356C147.74 29.3356 145.894 30.1456 145.129 31.9141L147.318 32.8456C147.779 31.9141 148.65 31.6036 149.559 31.6036C150.838 31.6036 152.13 32.3866 152.144 33.7771V33.9526C151.695 33.6961 150.746 33.3046 149.573 33.3046C147.212 33.3046 144.826 34.6276 144.826 37.0981C144.826 39.3526 146.751 40.8106 148.913 40.8106C150.561 40.8106 151.484 40.0546 152.051 39.1636H152.144V40.4731H154.517V34.0066C154.517 31.0096 152.328 29.3356 149.507 29.3356H149.52ZM134.317 31.7656H130.823V25.9741H134.317C136.163 25.9741 137.205 27.5266 137.205 28.8631C137.205 30.1996 136.163 31.7521 134.317 31.7521V31.7656ZM134.251 23.6251H128.358V40.5001H130.823V34.1011H134.265C136.994 34.1011 139.67 32.0761 139.67 28.8631C139.67 25.6501 136.994 23.6251 134.265 23.6251H134.251ZM102.106 38.5831C100.405 38.5831 98.981 37.1251 98.981 35.1271C98.981 33.1291 100.405 31.6306 102.106 31.6306C103.807 31.6306 105.099 33.1156 105.099 35.1271C105.099 37.1386 103.78 38.5831 102.106 38.5831ZM104.928 30.6451H104.848C104.295 29.9701 103.24 29.3626 101.895 29.3626C99.0865 29.3626 96.5154 31.8871 96.5154 35.1271C96.5154 38.3671 99.0865 40.8511 101.895 40.8511C103.227 40.8511 104.295 40.2436 104.848 39.5416H104.928V40.3651C104.928 42.5656 103.78 43.7401 101.934 43.7401C100.431 43.7401 99.4952 42.6331 99.1129 41.7016L96.9637 42.6196C97.5834 44.1451 99.2183 46.0081 101.934 46.0081C104.822 46.0081 107.261 44.2666 107.261 40.0276V29.7136H104.928V30.6451V30.6451ZM108.962 40.5001H111.428V23.6251H108.962V40.5001ZM115.054 34.9381C114.988 32.7241 116.728 31.5901 117.981 31.5901C118.957 31.5901 119.787 32.0896 120.064 32.8051L115.054 34.9381V34.9381ZM122.701 33.0211C122.24 31.7386 120.816 29.3626 117.902 29.3626C114.988 29.3626 112.614 31.6846 112.614 35.1001C112.614 38.3131 114.988 40.8376 118.179 40.8376C120.75 40.8376 122.24 39.2311 122.859 38.2996L120.948 36.9901C120.315 37.9486 119.444 38.5831 118.192 38.5831C116.939 38.5831 116.043 37.9891 115.476 36.8416L122.978 33.6691L122.728 33.0211H122.701ZM62.9591 31.1311V33.5611H68.6551C68.4837 34.9381 68.0354 35.9371 67.3629 36.6256C66.5323 37.4761 65.2401 38.4076 62.9723 38.4076C59.465 38.4076 56.7225 35.5186 56.7225 31.9276C56.7225 28.3366 59.465 25.4476 62.9723 25.4476C64.8577 25.4476 66.2422 26.2036 67.2574 27.1891L68.932 25.4746C67.508 24.0841 65.6225 23.0176 62.9591 23.0176C58.1597 23.0176 54.125 27.0136 54.125 31.9411C54.125 36.8686 58.1597 40.8646 62.9591 40.8646C65.5566 40.8646 67.508 40.0006 69.0374 38.3671C70.6065 36.7606 71.0943 34.4926 71.0943 32.6701C71.0943 32.1031 71.0548 31.5766 70.9625 31.1446H62.9591V31.1311ZM77.5683 38.5966C75.8674 38.5966 74.4038 37.1656 74.4038 35.1136C74.4038 33.0616 75.8674 31.6306 77.5683 31.6306C79.2692 31.6306 80.7327 33.0481 80.7327 35.1136C80.7327 37.1791 79.2692 38.5966 77.5683 38.5966ZM77.5683 29.3761C74.4697 29.3761 71.9382 31.7926 71.9382 35.1136C71.9382 38.4346 74.4697 40.8511 77.5683 40.8511C80.6668 40.8511 83.1983 38.4211 83.1983 35.1136C83.1983 31.8061 80.6668 29.3761 77.5683 29.3761ZM89.8437 38.5966C88.1428 38.5966 86.6792 37.1656 86.6792 35.1136C86.6792 33.0616 88.1428 31.6306 89.8437 31.6306C91.5446 31.6306 93.0081 33.0481 93.0081 35.1136C93.0081 37.1791 91.5446 38.5966 89.8437 38.5966ZM89.8437 29.3761C86.7452 29.3761 84.2136 31.7926 84.2136 35.1136C84.2136 38.4346 86.7452 40.8511 89.8437 40.8511C92.9422 40.8511 95.4738 38.4211 95.4738 35.1136C95.4738 31.8061 92.9422 29.3761 89.8437 29.3761Z" fill="white"/>
<path d="M27.3196 26.2165L13.2773 41.4715C13.7125 43.132 15.1892 44.347 16.9428 44.347C17.6416 44.347 18.3009 44.158 18.8679 43.807L18.9074 43.78L34.7033 34.438L27.3064 26.1895L27.3196 26.2165Z" fill="#E43628"/>
<path d="M41.5208 23.624H41.5076L34.6909 19.5605L27.0039 26.567L34.7172 34.4645L41.5076 30.455C42.6943 29.7935 43.4986 28.511 43.4986 27.026C43.4986 25.541 42.7075 24.272 41.5208 23.624V23.624Z" fill="#F9BD00"/>
<path d="M13.2764 12.5273C13.1973 12.8513 13.1445 13.1753 13.1445 13.5263V40.4858C13.1445 40.8368 13.1841 41.1608 13.2764 41.4848L27.7933 26.6213L13.2764 12.5273Z" fill="#587DBE"/>
<path d="M27.425 26.9997L34.6901 19.5612L18.9074 10.1922C18.3273 9.84117 17.668 9.63867 16.9428 9.63867C15.1892 9.63867 13.7125 10.8672 13.2773 12.5142L27.425 26.9862V26.9997Z" fill="#30A043"/>
</g>
<defs>
<clipPath id="clip0_2133_54919">
<rect width="178" height="54" fill="white"/>
</clipPath>
</defs>
</svg>
