<svg width="41" height="41" viewBox="0 0 41 41" fill="none" xmlns="http://www.w3.org/2000/svg">
<path d="M20.3507 18.1369C20.4854 18.2394 20.5768 18.3886 20.607 18.5552L20.6178 18.6771V24.7763C20.6181 24.9456 20.555 25.1089 20.441 25.234C20.327 25.359 20.1702 25.4369 20.0016 25.4522C19.833 25.4675 19.6648 25.4191 19.5302 25.3166C19.3955 25.2141 19.304 25.0648 19.2739 24.8983L19.263 24.7763V18.6771C19.2627 18.5079 19.3258 18.3446 19.4398 18.2195C19.5539 18.0944 19.7106 18.0166 19.8792 18.0013C20.0478 17.986 20.216 18.0343 20.3507 18.1369Z" fill="#059ABE"/>
<path d="M20.7253 14.9104C20.9158 15.1009 21.0229 15.3594 21.0229 15.6289C21.0229 15.8984 20.9158 16.1568 20.7253 16.3474C20.5347 16.5379 20.2763 16.645 20.0068 16.645C19.7373 16.645 19.4789 16.5379 19.2883 16.3474C19.0978 16.1568 18.9907 15.8984 18.9907 15.6289C18.9907 15.3594 19.0978 15.1009 19.2883 14.9104C19.4789 14.7198 19.7373 14.6128 20.0068 14.6128C20.2763 14.6128 20.5347 14.7198 20.7253 14.9104Z" fill="#059ABE"/>
<rect x="33.1708" y="7.87953" width="25.6592" height="25.6592" rx="12.8296" transform="rotate(90 33.1708 7.87953)" stroke="#059ABE" stroke-width="1.27317"/>
</svg>
