<svg width="391" height="179" viewBox="0 0 391 179" fill="none" xmlns="http://www.w3.org/2000/svg">
<g filter="url(#filter0_d_3341_67488)">
<rect x="18.75" y="102.814" width="42.0605" height="42.0605" rx="10" fill="white"/>
</g>
<path fill-rule="evenodd" clip-rule="evenodd" d="M53.0149 129.228H27.1797V118.893H53.0186V129.228H53.0149Z" fill="#0058AB"/>
<path fill-rule="evenodd" clip-rule="evenodd" d="M27.6953 124.061C27.6953 126.602 32.8931 128.712 40.0998 128.712C47.3065 128.712 52.5006 126.602 52.5006 124.061C52.5006 121.521 47.3028 119.41 40.0998 119.41C32.8968 119.41 27.6953 121.521 27.6953 124.061Z" fill="#FBD914"/>
<path d="M39.1834 125.611C39.2648 125.727 39.3537 125.835 39.4574 125.933H36.6613C36.6613 125.824 36.554 125.604 36.4354 125.43C36.3169 125.257 35.6762 124.306 35.6762 124.306V125.611C35.6762 125.719 35.6762 125.824 35.7318 125.933H33.4024C33.4579 125.824 33.4579 125.719 33.4579 125.611V122.509C33.4579 122.401 33.4579 122.296 33.4024 122.187H35.7318C35.6762 122.296 35.6762 122.401 35.6762 122.509V123.865C35.6762 123.865 36.4206 122.918 36.591 122.697C36.7206 122.531 36.8799 122.296 36.8799 122.187H39.3093C39.1426 122.296 38.9575 122.491 38.8056 122.672C38.6723 122.831 37.9168 123.731 37.9168 123.731C37.9168 123.731 39.0352 125.398 39.1834 125.611ZM39.9166 122.509V125.611C39.9166 125.719 39.9166 125.824 39.8611 125.933H44.357V124.891C44.2459 124.946 44.1385 124.946 44.0274 124.946H42.135V124.454H43.9533V123.666H42.135V123.171H44.0274C44.1385 123.171 44.2459 123.171 44.357 123.221V122.184H39.8611C39.9166 122.296 39.9166 122.401 39.9166 122.509ZM50.5861 125.611C50.6231 125.73 50.6861 125.839 50.7676 125.933H48.3307C48.3419 125.824 48.3011 125.719 48.2567 125.611C48.2567 125.611 48.2196 125.524 48.1678 125.398L48.1456 125.343H46.742L46.7198 125.401C46.7198 125.401 46.679 125.506 46.642 125.614C46.605 125.723 46.5642 125.828 46.5791 125.936H44.657C44.7355 125.841 44.7946 125.732 44.8311 125.614L45.9828 122.513C46.0235 122.404 46.0643 122.3 46.0495 122.191H49.2973C49.2677 122.3 49.327 122.404 49.3677 122.513C49.464 122.748 50.5046 125.401 50.5861 125.611ZM47.8382 124.552L47.4975 123.684C47.4679 123.605 47.4419 123.521 47.4234 123.438C47.4086 123.522 47.3863 123.604 47.3568 123.684C47.3456 123.72 47.2012 124.1 47.0345 124.552H47.8382ZM32.2987 122.187H29.7656C29.8212 122.296 29.8212 122.401 29.8212 122.509V125.611C29.8212 125.719 29.8212 125.824 29.7656 125.933H32.2987C32.2432 125.824 32.2432 125.719 32.2432 125.611V122.509C32.2432 122.401 32.2432 122.296 32.2987 122.187ZM49.8084 122.484C49.7973 122.22 50.0084 121.999 50.2787 121.992H50.3121C50.5861 121.989 50.812 122.198 50.8157 122.466V122.484C50.8231 122.755 50.6046 122.983 50.3232 122.99C50.0454 122.997 49.8121 122.784 49.8047 122.509C49.8084 122.502 49.8084 122.491 49.8084 122.484ZM49.9084 122.484C49.9084 122.701 50.0899 122.878 50.3121 122.878C50.5343 122.878 50.7157 122.701 50.7157 122.484C50.7157 122.267 50.5343 122.09 50.3121 122.09C50.0973 122.083 49.9158 122.245 49.9084 122.455V122.484ZM50.2121 122.777H50.1232V122.184H50.3491C50.4565 122.187 50.538 122.271 50.538 122.375C50.538 122.448 50.4972 122.513 50.4306 122.549L50.5602 122.777H50.4602L50.3417 122.567H50.2121V122.777ZM50.2121 122.484H50.3343C50.3935 122.487 50.4454 122.444 50.4454 122.386C50.4454 122.328 50.4047 122.278 50.3454 122.278H50.2121V122.484Z" fill="#0058A3"/>
<g filter="url(#filter1_d_3341_67488)">
<rect x="-2.96094" y="26.4648" width="55.2773" height="55.2773" rx="10" fill="white"/>
</g>
<path d="M29.2858 46.6618C30.1132 46.256 30.5232 46.3093 30.5324 46.7205C30.5434 47.2548 30.4644 47.9652 30.4073 48.4792C30.1003 51.2732 29.5873 53.5562 29.5487 56.4249C30.9001 52.9317 32.0327 50.5038 33.4925 47.5136C33.9559 46.5608 34.2519 46.7389 34.6325 46.57C36.1144 45.9109 36.1696 46.3148 35.9765 47.1207C35.2576 50.1058 33.4171 59.5045 33.1359 60.9517C33.0549 61.3705 32.599 61.193 32.4813 61.0292C31.9536 60.3004 31.3579 60.289 31.4241 59.8043C31.7551 57.3915 32.9465 51.3376 33.2572 49.9112C31.6741 53.1518 30.0323 57.2029 29.1883 59.5C29.0099 59.9877 28.6845 59.9519 28.4823 59.595C28.1973 59.0937 27.6439 58.8378 27.5519 58.2453C27.2633 56.3618 27.8829 52.7716 27.9693 50.5003C27.107 52.9814 25.66 57.7985 25.0256 59.9748C24.7646 60.8753 23.893 60.7285 24.1247 59.8508C25.0881 56.1984 27.164 49.7386 28.0612 47.4163C28.2727 46.8692 28.8261 46.8875 29.2858 46.6618Z" fill="#FF3838"/>
<path d="M24.0343 46.2142C23.7549 46.1463 22.944 46.5832 22.4457 46.6695C22.2876 46.697 22.1369 46.864 22.0835 46.9834C21.2855 48.8137 20.5703 50.5585 19.9507 52.148C19.1583 52.2831 18.2316 52.461 17.1946 52.6936C17.9374 50.7911 18.6876 48.9147 19.4194 47.11C19.7797 46.2215 18.831 46.137 18.4633 47.0366C17.9852 48.2061 17.0898 50.3971 16.0988 52.951C15.3707 53.1292 14.5985 53.333 13.7913 53.5658C13.2047 53.7349 13.1809 53.8909 13.4346 54.2421C13.5743 54.4376 13.863 54.4179 13.9954 54.5573C14.3374 54.9184 14.5451 55.3504 15.1574 55.4157C14.6113 56.8743 14.0652 58.3784 13.5706 59.8267C13.2599 60.7358 14.1443 60.9218 14.4845 59.9598C15.0324 58.409 15.6097 56.8396 16.2036 55.2747C16.6981 55.16 17.8951 54.9026 19.0001 54.6632C18.1231 57.0633 17.5457 58.8862 17.327 59.7734C17.2865 59.9441 17.3545 60.0389 17.3913 60.1085C17.6873 60.5386 17.9686 60.5562 18.3492 61.088C18.4522 61.2331 18.7979 61.3113 18.9155 60.9542C19.7282 58.5032 20.5648 56.2034 21.3443 54.1418C21.6679 54.0711 22.2508 53.9307 22.6075 53.3992C23.2418 52.4559 23.4238 52.6472 23.5764 52.3605C23.7677 52.0005 23.6408 51.6625 22.9642 51.746C22.9642 51.746 22.7086 51.7641 22.2361 51.8179C22.9862 49.8894 23.6426 48.2537 24.1152 47.0072C24.277 46.585 24.2973 46.2766 24.0343 46.2142Z" fill="#FF3838"/>
<path d="M22.931 58.722C23.1057 59.1628 23.6518 59.0293 23.444 58.4973C23.2325 57.9554 22.7067 56.3239 22.5688 55.7982C22.3812 55.09 23.1939 55.2837 22.7821 55.7467C22.4291 56.1449 22.1937 56.3044 21.541 57.0615C20.9104 57.7924 21.0813 58.7408 21.7561 58.9502C22.5173 59.1867 23.1884 58.3492 23.6039 57.7347C24.0066 57.1397 23.6168 56.7908 23.2105 57.1425C22.9494 57.3687 22.6478 57.716 22.3426 57.9033C22.0944 58.054 21.8995 57.8921 22.2305 57.4372C22.6147 56.9105 23.045 56.4691 23.3649 55.9714C24.0176 54.9571 22.7269 54.3724 22.1716 55.0313C21.8737 55.3825 21.9491 55.7273 22.03 56.0232C22.1606 56.4972 22.646 58.0103 22.931 58.722Z" fill="#FF3838"/>
<g filter="url(#filter2_d_3341_67488)">
<rect x="336.812" y="33.8945" width="54.1309" height="54.1309" rx="10" fill="white"/>
</g>
<path d="M372.161 66.8639C371.851 67.6025 371.483 68.2823 371.057 68.9074C370.477 69.7595 370.001 70.3494 369.635 70.6769C369.067 71.2146 368.459 71.4899 367.807 71.5056C367.339 71.5056 366.775 71.3686 366.119 71.0906C365.46 70.8139 364.855 70.6769 364.301 70.6769C363.72 70.6769 363.098 70.8139 362.432 71.0906C361.765 71.3686 361.228 71.5134 360.817 71.5278C360.192 71.5552 359.569 71.272 358.948 70.6769C358.551 70.3207 358.055 69.71 357.46 68.8448C356.822 67.9209 356.298 66.8495 355.887 65.6281C355.447 64.3088 355.227 63.0312 355.227 61.7944C355.227 60.3776 355.524 59.1556 356.12 58.1316C356.588 57.3091 357.21 56.6603 357.99 56.184C358.769 55.7077 359.611 55.4649 360.518 55.4494C361.015 55.4494 361.665 55.6074 362.474 55.918C363.281 56.2297 363.798 56.3877 364.025 56.3877C364.195 56.3877 364.77 56.2029 365.745 55.8345C366.668 55.4929 367.446 55.3514 368.083 55.4071C369.811 55.5507 371.109 56.2518 371.972 57.515C370.427 58.4789 369.663 59.8288 369.678 61.5606C369.692 62.9096 370.167 64.0321 371.101 64.9234C371.525 65.3371 371.998 65.6568 372.524 65.8838C372.41 66.2244 372.289 66.5507 372.161 66.8639ZM368.199 50.8116C368.199 51.8689 367.824 52.8561 367.076 53.7698C366.173 54.8561 365.082 55.4837 363.898 55.3847C363.883 55.2579 363.874 55.1244 363.874 54.9841C363.874 53.9691 364.303 52.8828 365.065 51.9947C365.446 51.545 365.93 51.1711 366.517 50.8728C367.102 50.579 367.656 50.4165 368.177 50.3887C368.192 50.53 368.199 50.6714 368.199 50.8116V50.8116Z" fill="black"/>
<g filter="url(#filter3_d_3341_67488)">
<rect x="132.797" y="55.8926" width="57.3223" height="57.3223" rx="10" fill="white"/>
</g>
<path d="M158.029 82.9254C157.726 82.7674 157.276 82.6904 156.652 82.6902C155.799 82.6905 155.008 82.8585 154.708 82.9645C154.64 82.9851 154.568 83.0405 154.567 83.1354L154.567 83.1564L154.651 83.559L154.653 83.5665C154.679 83.6485 154.751 83.6852 154.817 83.6852H154.817C154.838 83.6844 154.854 83.6806 154.87 83.6769L155.012 83.6454C155.383 83.5571 155.945 83.4237 156.572 83.4237C156.952 83.4237 157.208 83.4552 157.379 83.5239C157.657 83.6239 157.659 83.7946 157.662 84.0771V84.4997C157.63 84.4991 157.576 84.4986 157.494 84.4986C157.187 84.4986 156.583 84.5121 155.989 84.6025C155.082 84.7347 154.333 84.9406 154.337 86.126C154.338 87.6308 155.808 87.6337 156.514 87.6351H156.514C156.994 87.635 157.437 87.5677 157.726 87.511C158.385 87.3656 158.554 87.1668 158.545 86.5446V84.0423C158.546 83.6607 158.547 83.1857 158.029 82.9254ZM157.666 86.7909C157.315 86.899 156.931 86.9538 156.524 86.9538V86.9889L156.524 86.9538C155.874 86.9491 155.239 86.8785 155.238 86.0914C155.243 85.4655 155.594 85.3909 156.04 85.2965L156.071 85.29C156.467 85.2097 157.461 85.1945 157.666 85.1923L157.666 86.7909ZM165.894 84.0423V86.5446C165.903 87.1667 165.735 87.3656 165.075 87.5109C164.786 87.5677 164.344 87.6349 163.864 87.635H163.864C163.157 87.6336 161.687 87.6308 161.687 86.126C161.682 84.9406 162.432 84.7346 163.338 84.6025C163.932 84.5121 164.536 84.4986 164.843 84.4986C164.926 84.4986 164.98 84.4991 165.012 84.4996V84.0771C165.009 83.7946 165.007 83.6239 164.729 83.5239C164.558 83.4552 164.302 83.4237 163.921 83.4237C163.294 83.4237 162.733 83.5571 162.361 83.6454L162.219 83.6769C162.204 83.6806 162.188 83.6844 162.167 83.6852H162.166C162.101 83.6852 162.029 83.6485 162.003 83.5665L162 83.559L161.917 83.1564L161.916 83.1354C161.918 83.0405 161.99 82.9851 162.058 82.9645C162.357 82.8585 163.149 82.6906 164.002 82.6902C164.625 82.6904 165.075 82.7674 165.378 82.9254C165.897 83.1857 165.895 83.6607 165.894 84.0423ZM165.016 85.1923C164.811 85.1945 163.816 85.2096 163.42 85.29L163.389 85.2965C162.944 85.3909 162.592 85.4654 162.588 86.0914C162.589 86.8785 163.224 86.949 163.874 86.9538L163.874 86.9889V86.9538C164.281 86.9538 164.665 86.899 165.016 86.7908L165.016 85.1923ZM179.208 82.6903C177.16 82.6929 176.987 83.97 176.985 85.1671C176.987 86.3598 177.16 87.6324 179.208 87.635H179.208C181.254 87.6324 181.428 86.3632 181.431 85.1669C181.429 83.9151 181.256 82.6928 179.208 82.6903ZM179.208 86.9363C177.966 86.9311 177.904 86.326 177.895 85.1673C177.904 84.0022 177.966 83.394 179.208 83.3889C180.45 83.394 180.512 84.0022 180.521 85.1668C180.512 86.326 180.45 86.9311 179.208 86.9363ZM175.533 87.4589L175.48 87.4717C175.194 87.5407 174.801 87.635 174.114 87.635H174.112C172.217 87.6324 171.845 86.7249 171.843 85.1583C171.846 83.3615 172.446 82.6927 174.057 82.6902C174.626 82.6902 175.017 82.76 175.298 82.8244L175.297 81.3772C175.294 81.3137 175.324 81.2306 175.483 81.2019L175.986 81.0801H176.014C176.129 81.0828 176.17 81.1807 176.17 81.2636V86.7015C176.178 87.0449 176.135 87.3395 175.533 87.4589ZM175.297 83.5209C175.129 83.4804 174.66 83.3802 174.132 83.3802C173.161 83.3886 172.754 83.6388 172.744 85.1672C172.756 86.8455 173.282 86.9363 174.14 86.945L174.141 86.9802V86.945C174.675 86.945 175.133 86.8394 175.297 86.7966L175.297 83.5209ZM170.774 87.5217H170.324C170.203 87.5214 170.112 87.435 170.112 87.3205V84.0945C170.104 83.5488 169.932 83.3971 169.313 83.3889C168.613 83.3889 167.904 83.5557 167.67 83.6162V87.3205C167.67 87.4369 167.585 87.5215 167.467 87.5217H167.008C166.887 87.5215 166.796 87.4351 166.796 87.3206V83.7022C166.79 83.3673 166.823 83.1358 167.325 82.9816C167.805 82.8241 168.724 82.6906 169.332 82.6903C170.489 82.6916 170.984 83.0881 170.985 84.016V87.3205C170.985 87.435 170.894 87.5215 170.774 87.5217ZM160.578 87.6088H160.578C160.837 87.604 161.028 87.5554 161.103 87.4756C161.13 87.4473 161.142 87.4146 161.139 87.3823C161.137 87.3558 161.137 87.3558 161.066 87.0402L161.064 87.0326C161.049 86.9501 160.987 86.9126 160.936 86.9126C160.931 86.9126 160.926 86.9129 160.929 86.9132C160.929 86.9132 160.864 86.9102 160.8 86.9102H160.799C160.615 86.9047 160.462 86.8792 160.459 86.623V81.2636C160.459 81.1742 160.402 81.0826 160.293 81.0801L160.261 81.0804L159.757 81.203C159.671 81.2114 159.581 81.2694 159.585 81.3771V86.6405C159.586 87.2638 159.938 87.6077 160.577 87.6088H160.578ZM153.457 87.5217H149.845C149.724 87.5214 149.633 87.435 149.633 87.3205V86.9019C149.631 86.7994 149.665 86.7537 149.732 86.6754L152.607 83.5022H149.79C149.669 83.502 149.578 83.4155 149.578 83.3011V83.0047C149.578 82.8902 149.669 82.8038 149.79 82.8036H153.439C153.559 82.8038 153.65 82.8902 153.651 83.0046V83.4319C153.652 83.5091 153.624 83.5746 153.559 83.6433L150.677 86.8229H153.457C153.578 86.8233 153.669 86.9096 153.669 87.024V87.3205C153.669 87.435 153.578 87.5215 153.457 87.5217Z" fill="#231F20"/>
<path d="M142.399 82.2754C141.775 82.2754 141.454 83.8936 141.487 85.4128C141.486 85.4126 141.485 85.4131 141.484 85.4128C141.518 86.7463 141.828 88.0245 142.444 88.0245C144.807 88.0245 147.5 85.909 147.5 85.1506C147.5 84.9609 147.296 84.5959 147.023 84.3077C147.023 84.3079 147.022 84.3075 147.022 84.3077C147.003 84.2873 146.984 84.2669 146.964 84.2462C146.122 83.3545 144.376 82.2754 142.399 82.2754Z" fill="url(#paint0_linear_3341_67488)"/>
<path d="M141.487 85.4126C143.262 85.8084 145.158 85.3629 146.994 84.3239C147.003 84.3186 147.013 84.3134 147.022 84.3081C147.003 84.2876 146.984 84.267 146.965 84.2463C146.123 83.3548 144.375 82.2754 142.399 82.2754C141.774 82.2754 141.453 83.8934 141.487 85.4126ZM147.022 84.3081C147.022 84.308 147.023 84.3077 147.023 84.3075L147.022 84.3081Z" fill="url(#paint1_linear_3341_67488)"/>
<path d="M141.484 85.4114C141.518 86.7448 141.829 88.0235 142.444 88.0235C144.807 88.0235 147.499 85.9086 147.499 85.1502C147.499 84.9606 147.295 84.5948 147.022 84.3066C145.176 85.3576 143.27 85.81 141.484 85.4114Z" fill="url(#paint2_linear_3341_67488)"/>
<g filter="url(#filter4_d_3341_67488)">
<rect x="200.781" y="34.2363" width="55.2773" height="55.2773" rx="10" fill="white"/>
</g>
<g clip-path="url(#clip0_3341_67488)">
<path d="M217.297 57.5308V61.0891C217.297 61.0891 218.551 61.0891 219.222 61.0381C219.75 60.9457 219.847 60.8948 219.944 60.3671L220.138 59.5942H220.712L220.615 61.2833L220.666 63.0139H220.087L219.944 62.3381C219.801 61.8572 219.606 61.7595 219.222 61.7133C218.741 61.6624 217.297 61.6624 217.297 61.6624V64.6467C217.297 65.2206 217.589 65.4658 218.26 65.4658H220.282C220.906 65.4658 221.531 65.4149 221.92 64.5034L222.443 63.3467H222.928C222.878 63.5872 222.637 65.7063 222.591 66.1831C222.591 66.1831 220.763 66.1369 219.995 66.1369H216.529L214.461 66.1831V65.6601L215.132 65.512C215.618 65.4149 215.761 65.2716 215.761 64.8872C215.761 64.8872 215.812 63.5872 215.812 61.4213C215.812 59.2608 215.761 57.9602 215.761 57.9602C215.761 57.5296 215.618 57.4325 215.132 57.3353L214.461 57.1932V56.6655L216.483 56.7069H220.333C221.101 56.7069 222.396 56.5684 222.396 56.5684C222.396 56.5684 222.35 57.3827 222.299 59.3075H221.771L221.577 58.6318C221.387 57.7665 221.1 57.3359 220.568 57.3359H217.542C217.297 57.3365 217.297 57.3827 217.297 57.5308ZM225.089 57.9104H225.668V59.9324L227.643 59.8352L227.546 60.7515L225.621 60.6034V64.1664C225.621 65.175 225.959 65.5636 226.538 65.5636C227.061 65.5636 227.449 65.2722 227.592 65.0317L227.879 65.3693C227.592 66.0403 226.778 66.3779 226.005 66.3779C225.048 66.3779 224.27 65.804 224.27 64.6983V60.6537H223.122V60.1728C224.085 60.0757 224.802 59.4971 225.089 57.9104ZM229.23 64.1149L229.614 65.0311C229.757 65.4149 230.095 65.804 230.863 65.804C231.682 65.804 232.02 65.3693 232.02 64.8416C232.02 63.2034 228.795 63.6849 228.795 61.4728C228.795 60.2238 229.803 59.6404 231.103 59.6404C231.682 59.6404 232.547 59.7375 232.982 59.9318C232.885 60.4127 232.834 61.0375 232.834 61.519L232.357 61.5652L232.02 60.6028C231.922 60.3671 231.534 60.1722 231.057 60.1722C230.479 60.1722 229.9 60.4127 229.9 61.0375C229.9 62.5276 233.222 62.1942 233.222 64.4063C233.222 65.6601 232.117 66.3311 230.766 66.3311C229.757 66.3311 228.744 65.9426 228.744 65.9426C228.841 65.3687 228.795 64.7445 228.744 64.1149H229.23ZM232.983 68.7327C233.126 68.205 233.223 67.5346 233.32 66.905L233.848 66.8588L234.042 67.8674C234.088 68.1079 234.232 68.3022 234.616 68.3022C235.241 68.3022 236.06 67.9184 236.832 66.5716C236.49 65.7525 235.481 63.1104 234.565 61.0885C234.325 60.5566 234.278 60.5098 233.945 60.4127L233.7 60.3203V59.8347L235.148 59.8856L236.925 59.7885V60.27L236.49 60.3671C236.152 60.4133 236.013 60.6028 236.013 60.7977C236.013 60.8486 236.013 60.8948 236.059 60.9919C236.152 61.2833 236.925 63.4445 237.503 64.8878C237.98 63.8792 238.896 61.6168 239.04 61.2324C239.091 61.0381 239.137 60.9919 239.137 60.8486C239.137 60.6034 238.993 60.4601 238.66 60.3677L238.318 60.27V59.7891L239.669 59.8352L240.918 59.7891V60.27L240.677 60.4595C240.196 60.6537 240.145 60.6999 239.955 61.0885L237.841 66.0391C236.587 68.8802 235.287 69.1207 234.375 69.1207C233.797 69.1212 233.362 68.9732 232.983 68.7327Z" fill="black"/>
</g>
<g filter="url(#filter5_d_3341_67488)">
<rect x="65.0547" y="42.709" width="55.1797" height="55.1797" rx="10" fill="white"/>
</g>
<path d="M81.5779 71.7537L85.8024 69.2353L88.0633 73.1566L82.4102 73.1867L81.5779 71.7537ZM86.5346 67.3062L90.7519 64.8078L95.547 73.118L89.9081 73.1466L86.5346 67.3062ZM91.3554 62.7528L95.577 60.2559L102.993 73.0765L97.316 73.108L91.3554 62.7528ZM81.0645 74.8441C79.6716 74.8513 78.5476 76.0011 78.5547 77.4125C78.5619 78.824 79.6988 79.961 81.0917 79.9538C82.486 79.9467 83.6086 78.7969 83.6015 77.3854C83.5943 75.9739 82.4588 74.837 81.0645 74.8441ZM81.086 78.8126C80.3152 78.8169 79.6859 78.1877 79.6816 77.4068C79.6773 76.626 80.2994 75.9896 81.0702 75.9853C81.841 75.981 82.4703 76.6103 82.4746 77.3911C82.4803 78.1719 81.8582 78.8083 81.086 78.8126Z" fill="#020202"/>
<path d="M82.4922 74.8859L83.6806 74.8795L83.7076 79.8275L82.5192 79.834L82.4922 74.8859ZM99.7324 74.7422C98.3381 74.7494 97.2154 75.8992 97.2226 77.3107C97.2297 78.7222 98.3667 79.8591 99.7596 79.8519C101.154 79.8448 102.276 78.695 102.269 77.2835C102.262 75.872 101.125 74.7337 99.7324 74.7422ZM99.7538 78.7107C98.983 78.715 98.3538 78.0858 98.3495 77.3049C98.3452 76.5241 98.9673 75.8877 99.7381 75.8834C100.509 75.8791 101.138 76.5084 101.142 77.2892C101.147 78.07 100.525 78.7064 99.7538 78.7107Z" fill="#020202"/>
<path d="M101.161 74.7838L102.349 74.7773L102.376 79.7254L101.188 79.7319L101.161 74.7838ZM86.6817 74.8132C85.2874 74.8203 84.1648 75.9701 84.1719 77.3816C84.1791 78.7931 85.316 79.93 86.7089 79.9228C88.1032 79.9157 89.2258 78.7659 89.2187 77.3544C89.2115 75.9429 88.0746 74.8046 86.6817 74.8132ZM86.7032 78.7816C85.9323 78.7859 85.3031 78.1567 85.2988 77.3759C85.2945 76.595 85.9166 75.9587 86.6874 75.9544C87.4582 75.9501 88.0875 76.5793 88.0918 77.3601C88.0961 78.141 87.474 78.7774 86.7032 78.7816Z" fill="#020202"/>
<path d="M88.1016 73.1569L89.29 73.1504L89.3262 79.7974L88.1378 79.8039L88.1016 73.1569ZM94.2203 74.7736C92.8259 74.7808 91.7033 75.9305 91.7105 77.342C91.7176 78.7535 92.8545 79.8904 94.2474 79.8833C95.6418 79.8761 96.7644 78.7264 96.7572 77.3149C96.7487 75.9034 95.6132 74.765 94.2203 74.7736ZM94.2417 78.7421C93.4709 78.7464 92.8417 78.1171 92.8374 77.3363C92.8331 76.5555 93.4552 75.9191 94.226 75.9148C94.9968 75.9105 95.626 76.5398 95.6303 77.3206C95.6346 78.1014 95.0125 78.7378 94.2417 78.7421Z" fill="#020202"/>
<path d="M95.6449 73.1159L96.8333 73.1094L96.8695 79.7564L95.6811 79.7629L95.6449 73.1159ZM89.9147 74.7962L91.1031 74.7898L91.1303 79.7879L89.9419 79.7944L89.9147 74.7962ZM89.9062 73.1473L91.0946 73.1408L91.1015 74.4036L89.9131 74.41L89.9062 73.1473ZM105.836 76.3271L107.073 76.32C107.073 76.32 106.923 74.7026 104.902 74.714C102.925 74.7255 102.969 76.3429 102.969 76.3429C102.969 76.3429 102.925 77.2853 103.961 77.6028C103.961 77.6028 104.237 77.7315 105.163 77.8688C106.088 78.0061 105.974 78.3664 105.974 78.3664C105.974 78.3664 105.939 78.9313 105.144 78.917C104.348 78.9027 104.15 78.4951 104.136 78.1219L102.88 78.129C102.88 78.129 102.776 79.2402 104.279 79.715C105.782 80.1898 106.806 79.336 106.97 79.123C107.135 78.9113 107.498 78.1405 107.046 77.4111C107.046 77.4111 106.83 77.0036 106.057 76.7833C106.057 76.7833 104.848 76.5674 104.714 76.5359C104.579 76.5059 103.99 76.2671 104.306 75.8309C104.306 75.8309 104.556 75.5878 105.176 75.6593C105.829 75.7365 105.799 76.0669 105.836 76.3271Z" fill="#020202"/>
<g filter="url(#filter6_d_3341_67488)">
<rect x="268.562" y="54.0645" width="54.5527" height="54.5527" rx="10" fill="white"/>
</g>
<path d="M284.75 78.6445H282.4L281.469 83.8988H282.91L283.497 79.8085H283.641L284.24 83.8988H285.681L284.75 78.6445Z" fill="#074CA1"/>
<path d="M291.555 83.8988L291.489 79.9415H291.356L290.679 83.8988H289.272L288.596 79.9415H288.462L288.396 83.8988H287.055L287.265 78.6445H289.516L289.915 81.5488H290.037L290.425 78.6445H292.675L292.897 83.8988H291.555Z" fill="#074CA1"/>
<path d="M299.816 82.746L299.805 78.6445H301.279V82.6684V82.6906V82.7127L301.29 82.7349V82.7571V82.7793V82.8014L301.301 82.8125L301.312 82.8347V82.8568L301.323 82.879L301.334 82.8901L301.346 82.9123L301.357 82.9234L301.368 82.9455L301.379 82.9566L301.39 82.9677L301.401 82.9899L301.423 83.001L301.434 83.012L301.456 83.0231L301.467 83.0342L301.49 83.0453L301.501 83.0564L301.523 83.0675L301.545 83.0785H301.556L301.578 83.0896H301.6H301.623L301.645 83.1007H301.667H301.689H301.711H301.722L301.745 83.0896H301.767H301.789L301.811 83.0785H301.833L301.844 83.0675L301.867 83.0564L301.889 83.0453L301.9 83.0342L301.922 83.0231L301.933 83.012L301.944 83.001L301.966 82.9899L301.977 82.9677L301.988 82.9566L302 82.9455L302.011 82.9234L302.022 82.9123L302.033 82.8901L302.044 82.879L302.055 82.8568L302.066 82.8347V82.8125L302.077 82.8014V82.7793V82.7571L302.088 82.7349V82.7127V82.6906V82.6684V78.6445H303.563V82.7682V82.8568L303.551 82.9344L303.54 83.0231L303.518 83.1007L303.496 83.1783L303.474 83.2559L303.441 83.3224L303.396 83.3889L303.363 83.4554L303.319 83.5219L303.263 83.5774L303.219 83.6328L303.163 83.6882L303.097 83.7437L303.042 83.788L302.975 83.8323L302.908 83.8767L302.842 83.921L302.764 83.9543L302.687 83.9986L302.609 84.0208L302.532 84.054L302.454 84.0762L302.376 84.1095L302.288 84.1205L302.21 84.1427L302.033 84.176L301.855 84.1871H301.689H301.512L301.334 84.1649L301.168 84.1427L301.079 84.1205L300.991 84.0984L300.913 84.0762L300.836 84.054L300.758 84.0208L300.68 83.9875L300.603 83.9543L300.536 83.9099L300.459 83.8767L300.392 83.8323L300.326 83.7769L300.27 83.7326L300.215 83.6771L300.159 83.6217L300.104 83.5663L300.06 83.4998L300.015 83.4444L299.971 83.3778L299.938 83.3002L299.904 83.2337L299.871 83.1561L299.849 83.0785L299.838 83.001L299.816 82.9123V82.8347V82.746Z" fill="#074CA1"/>
<path d="M309.828 78.6445H308.554V81.9368H308.52L307.035 78.6445H305.461V83.8988H306.736V80.8283H306.769L308.166 83.8988H309.828V78.6445Z" fill="#074CA1"/>
<path d="M294.461 82.8696V82.1712H295.935L295.924 82.4816V82.5592V82.6257V82.6589L295.935 82.6922V82.7255L295.946 82.7587L295.957 82.7809V82.792L295.969 82.8141L295.98 82.8252V82.8363L295.991 82.8474V82.8585L296.002 82.8696L296.013 82.8806L296.024 82.8917L296.035 82.9028L296.046 82.9139L296.057 82.925L296.068 82.9361L296.079 82.9472L296.09 82.9582H296.102L296.113 82.9693L296.135 82.9804H296.146L296.157 82.9915L296.179 83.0026H296.201L296.235 83.0137L296.279 83.0248H296.323H296.368H296.379H296.39H296.401H296.412H296.423H296.434H296.445H296.456L296.467 83.0137L296.489 83.0026L296.512 82.9915L296.534 82.9804L296.556 82.9693L296.578 82.9582L296.6 82.9361L296.623 82.925L296.634 82.9028L296.656 82.8806L296.667 82.8585L296.689 82.8363L296.7 82.8141L296.711 82.7809L296.722 82.7587L296.733 82.7255L296.744 82.7033V82.67V82.6368V82.6035V82.5703V82.537V82.4927L296.733 82.4594L296.722 82.4262L296.711 82.3818L296.689 82.3375L296.667 82.3042L296.656 82.2821L296.645 82.2599L296.634 82.2377L296.623 82.2266L296.611 82.2045L296.6 82.1934L296.567 82.1601L296.534 82.1269L296.501 82.0936L296.456 82.0714L296.423 82.0382L296.334 81.9938L296.246 81.9384L296.035 81.8387L295.802 81.7278L295.547 81.5948L295.403 81.5172L295.27 81.4285L295.137 81.3287L294.993 81.2068L294.971 81.1957L294.949 81.1846L294.938 81.1625L294.915 81.1403L294.893 81.1292L294.882 81.107L294.838 81.0627L294.816 81.0294L294.782 80.974L294.749 80.9297L294.727 80.8853L294.705 80.8299L294.683 80.7745L294.66 80.7191L294.649 80.6636L294.616 80.5417L294.594 80.4198L294.572 80.2867L294.561 80.1648L294.55 80.0429V79.9209V79.799L294.561 79.6882L294.572 79.5773L294.583 79.4886L294.605 79.411L294.616 79.3445L294.638 79.278L294.672 79.2115L294.705 79.1561L294.738 79.0896L294.771 79.0341L294.816 78.9787L294.86 78.9344L294.904 78.89L294.96 78.8346L295.015 78.8014L295.071 78.757L295.126 78.7238L295.181 78.6794L295.248 78.6462L295.314 78.624L295.381 78.5907L295.448 78.5686L295.525 78.5464L295.669 78.5021L295.813 78.4688L295.969 78.4466L296.124 78.4355H296.29H296.445L296.6 78.4466L296.756 78.4688L296.911 78.5021L297.066 78.5353L297.199 78.5797L297.343 78.624L297.465 78.6794L297.531 78.7127L297.587 78.7459L297.642 78.7792L297.698 78.8235L297.753 78.8568L297.798 78.9011L297.842 78.9344L297.886 78.9787L297.931 79.0231L297.964 79.0674L297.997 79.1228L298.008 79.145L298.019 79.1672L298.041 79.1893L298.052 79.2226L298.064 79.2448V79.2669L298.075 79.3002L298.086 79.3223V79.3445L298.097 79.3778V79.3999L298.108 79.4332V79.4665V79.4886V80.2202H296.767L296.778 79.9099V79.8433L296.767 79.7768V79.7436V79.7214L296.756 79.6882L296.744 79.666V79.6549V79.6438L296.733 79.6327V79.6106L296.722 79.5995L296.711 79.5884V79.5773H296.7L296.689 79.5662V79.5551L296.678 79.5441L296.667 79.533L296.656 79.5219H296.645L296.634 79.5108L296.623 79.4997H296.6L296.589 79.4886L296.578 79.4775H296.567L296.545 79.4665H296.534L296.489 79.4554L296.456 79.4443H296.412H296.368H296.323H296.301H296.279H296.268L296.246 79.4554H296.223L296.201 79.4665L296.179 79.4775L296.168 79.4886H296.146L296.124 79.5108L296.102 79.5219L296.09 79.533L296.068 79.5441L296.057 79.5662L296.035 79.5884L296.024 79.5995L296.013 79.6106L296.002 79.6216V79.6327L295.991 79.6438V79.6549L295.98 79.666V79.6771L295.969 79.6882V79.7103V79.7214L295.957 79.7325V79.7436V79.7547V79.7768V79.7879L295.946 79.799V79.8212V79.8323L295.957 79.8544V79.8655V79.8988L295.969 79.932L295.98 79.9764L295.991 80.0096L296.002 80.0429L296.024 80.0872L296.057 80.1316L296.102 80.1759L296.146 80.2202L296.179 80.2646L296.268 80.3422L296.356 80.4087L296.445 80.4752L296.545 80.5306L296.645 80.586L296.733 80.6304L297.121 80.8077L297.321 80.8964L297.41 80.9408L297.498 80.9962L297.587 81.0405L297.665 81.096L297.709 81.1292L297.753 81.1625L297.786 81.1957L297.82 81.229L297.853 81.2622L297.897 81.3066L297.919 81.3509L297.953 81.3842L297.986 81.4285L298.019 81.4839L298.041 81.5283L298.064 81.5837L298.086 81.6391L298.108 81.6945L298.13 81.75L298.152 81.8165L298.163 81.883L298.174 81.9495L298.197 82.016V82.0936L298.219 82.2488V82.4262L298.208 82.6146L298.197 82.8252L298.186 82.9028L298.174 82.9693L298.152 83.0469L298.13 83.1134L298.097 83.1799L298.064 83.2465L298.03 83.313L297.986 83.3684L297.942 83.4238L297.897 83.4792L297.842 83.5347L297.786 83.5901L297.731 83.6344L297.676 83.6788L297.609 83.7231L297.543 83.7564L297.476 83.7896L297.41 83.834L297.332 83.8561L297.265 83.8894L297.188 83.9226L297.11 83.9448L296.944 83.9892L296.778 84.0113L296.611 84.0335L296.445 84.0557H296.279L296.102 84.0446L295.935 84.0335L295.769 84.0113L295.614 83.9781L295.459 83.9337L295.303 83.8783L295.237 83.845L295.159 83.8118L295.093 83.7785L295.037 83.7453L294.971 83.712L294.915 83.6677L294.86 83.6233L294.805 83.579L294.749 83.5347L294.705 83.4792L294.66 83.4349L294.627 83.3795L294.583 83.324L294.572 83.2908L294.55 83.2575L294.539 83.2354L294.527 83.2021L294.516 83.1689L294.505 83.1356L294.494 83.1023L294.483 83.0691V83.0358L294.472 83.0026V82.9693L294.461 82.9361V82.9028V82.8696Z" fill="#074CA1"/>
<path d="M278.244 78.4238L278.023 78.446L277.812 78.4682L277.712 78.4903L277.624 78.5125L277.535 78.5347L277.446 78.5568L277.369 78.5901L277.291 78.6234L277.213 78.6566L277.147 78.6899L277.08 78.7231L277.025 78.7675L276.97 78.8118L276.914 78.8561L276.87 78.9005L276.814 78.9448L276.781 79.0002L276.737 79.0446L276.704 79.1L276.67 79.1554L276.637 79.2109L276.615 79.2663L276.582 79.3217L276.559 79.3771L276.548 79.4326L276.526 79.4991L276.515 79.5545L276.504 79.6099L276.493 79.6764V79.7319L276.482 79.8538V79.9757L276.493 80.0977L276.504 80.2196L276.526 80.3305L276.559 80.4413L276.593 80.5522L276.626 80.6519L276.659 80.7517L276.704 80.8404L276.748 80.929L276.792 81.0066L276.837 81.0732L276.859 81.1064L276.881 81.1286L276.903 81.1507L276.925 81.1729L276.947 81.1951L276.958 81.2062H276.97L277.114 81.3281L277.247 81.4279L277.391 81.5166L277.524 81.5942L277.779 81.7272L278.012 81.838L278.222 81.9378L278.311 81.9932L278.4 82.0375L278.444 82.0708L278.477 82.093L278.51 82.1262L278.544 82.1595L278.577 82.1927L278.588 82.2038L278.599 82.226L278.61 82.2371L278.621 82.2593L278.632 82.2814L278.643 82.3036L278.666 82.3368L278.688 82.3812L278.699 82.4255L278.71 82.4588L278.721 82.492V82.5364L278.732 82.5696V82.6029V82.6361L278.721 82.6694V82.7027L278.71 82.7248L278.699 82.7581L278.688 82.7802L278.677 82.8135L278.666 82.8357L278.655 82.8578L278.632 82.88L278.61 82.9022L278.599 82.9244L278.577 82.9354L278.555 82.9576L278.533 82.9687L278.521 82.9798L278.499 82.9909L278.477 83.0019L278.455 83.013L278.433 83.0241H278.422H278.411H278.4H278.388H278.377H278.366H278.355H278.344H278.3H278.255L278.211 83.013L278.178 83.0019H278.156L278.145 82.9909L278.122 82.9798H278.111L278.089 82.9687L278.078 82.9576H278.067L278.056 82.9465L278.045 82.9354L278.034 82.9244L278.023 82.9133L278.012 82.9022L278 82.8911L277.989 82.88L277.978 82.8689V82.8578L277.967 82.8468L277.956 82.8357V82.8246L277.945 82.8135V82.7913L277.934 82.7802L277.923 82.7581V82.7248L277.912 82.6916V82.6583L277.901 82.6251V82.5585V82.481L277.912 82.1706H276.438V82.8689V82.9022V82.9354L276.449 82.9687V83.0019L276.46 83.0352V83.0685L276.471 83.1017L276.482 83.135L276.493 83.1682L276.504 83.2015L276.515 83.2347L276.537 83.2569L276.548 83.2902L276.559 83.3234L276.604 83.3788L276.637 83.4343L276.681 83.4786L276.726 83.534L276.781 83.5784L276.837 83.6227L276.892 83.6671L276.947 83.7114L277.014 83.7446L277.08 83.7779L277.147 83.8112L277.213 83.8444L277.28 83.8777L277.435 83.9331L277.59 83.9774L277.746 84.0107L277.912 84.0329L278.089 84.0439L278.255 84.055H278.422L278.599 84.0329L278.765 84.0107L278.921 83.9885L279.087 83.9442L279.164 83.922L279.242 83.8888L279.309 83.8555L279.386 83.8333L279.453 83.789L279.519 83.7557L279.586 83.7225L279.652 83.6781L279.708 83.6338L279.774 83.5895L279.818 83.534L279.874 83.4786L279.918 83.4232L279.963 83.3678L280.007 83.3123L280.04 83.2458L280.073 83.1793L280.107 83.1128L280.129 83.0463L280.151 82.9687L280.162 82.9022L280.173 82.8246L280.184 82.614L280.195 82.4255V82.2482L280.184 82.093L280.173 82.0154L280.162 81.9489L280.14 81.8824L280.129 81.8159L280.107 81.7493L280.096 81.6939L280.073 81.6385L280.04 81.5831L280.018 81.5276L279.996 81.4833L279.963 81.4279L279.929 81.3835L279.907 81.3503L279.874 81.3059L279.841 81.2616L279.796 81.2283L279.763 81.1951L279.73 81.1618L279.685 81.1286L279.652 81.0953L279.563 81.0399L279.475 80.9956L279.386 80.9401L279.297 80.8958L279.109 80.8071L278.71 80.6298L278.621 80.5854L278.521 80.53L278.433 80.4746L278.333 80.4081L278.244 80.3415L278.167 80.2639L278.122 80.2196L278.078 80.1753L278.045 80.1309L278 80.0866L277.978 80.0422L277.967 80.009L277.956 79.9757L277.945 79.9314L277.934 79.8981V79.8649V79.8538V79.8316V79.8205V79.7984V79.7873V79.7762V79.754V79.7429V79.7319L277.945 79.7208V79.7097L277.956 79.6875V79.6764V79.6654L277.967 79.6543V79.6432L277.978 79.6321L277.989 79.621V79.6099L278 79.5988L278.012 79.5878L278.034 79.5656L278.045 79.5434L278.067 79.5323L278.089 79.5212L278.1 79.5102L278.122 79.488H278.145L278.167 79.4769L278.178 79.4658L278.2 79.4547H278.222L278.244 79.4437H278.267H278.278H278.3H278.344H278.388H278.433L278.477 79.4547L278.51 79.4658H278.521L278.544 79.4769H278.555L278.566 79.488L278.588 79.4991H278.599L278.61 79.5102L278.621 79.5212H278.632L278.643 79.5323L278.655 79.5434L278.666 79.5545V79.5656L278.677 79.5767H278.688L278.699 79.5878V79.5988L278.71 79.6099V79.6321L278.721 79.6432V79.6543L278.732 79.6654V79.6875L278.743 79.7208V79.7429L278.754 79.7762V79.8427V79.9092L278.743 80.2196H280.084V79.488V79.4547V79.4104L280.073 79.3771V79.3328L280.062 79.2995L280.051 79.2663L280.04 79.233V79.1998L280.018 79.1665L280.007 79.1333L279.996 79.1111L279.974 79.0778L279.963 79.0446L279.94 79.0224L279.918 78.9892L279.907 78.967L279.885 78.9448L279.863 78.9227L279.83 78.8894L279.807 78.8672L279.763 78.8229L279.708 78.7785L279.641 78.7453L279.586 78.712L279.519 78.6788L279.453 78.6455L279.386 78.6123L279.309 78.5901L279.164 78.5458L279.009 78.5125L278.865 78.4793L278.699 78.4571L278.544 78.446L278.244 78.4238Z" fill="#074CA1"/>
<path d="M313.564 84.244L313.73 84.255L313.897 84.244L314.041 84.2329L314.174 84.2218L314.296 84.1996L314.407 84.1664L314.462 84.1553L314.517 84.1331L314.562 84.122L314.606 84.0998L314.65 84.0777L314.695 84.0555L314.739 84.0333L314.772 84.0112L314.817 83.989L314.85 83.9557L314.883 83.9336L314.905 83.9003L314.939 83.8781L314.961 83.8449L314.994 83.8116L315.016 83.7784L315.038 83.7562L315.061 83.723L315.083 83.6897L315.094 83.6564L315.116 83.6232L315.127 83.5899L315.149 83.5123L315.171 83.4458L315.194 83.3793L315.205 83.3017L315.216 83.2352L315.227 83.1576L315.238 83.0911V82.947V82.814V82.5812V81.1512H313.498V81.9161H313.852V82.814V82.8362V82.8583V82.8694L313.841 82.8916V82.9137V82.9248L313.83 82.947L313.819 82.9581V82.9803L313.808 82.9913L313.797 83.0135L313.786 83.0246L313.775 83.0468L313.764 83.0579L313.753 83.0689L313.742 83.08L313.73 83.0911L313.719 83.1022L313.697 83.1133L313.686 83.1244L313.675 83.1354L313.653 83.1465L313.642 83.1576L313.62 83.1687H313.608L313.586 83.1798H313.575L313.553 83.1909H313.531H313.509H313.498H313.475H313.453H313.431H313.42H313.398L313.376 83.1798H313.365L313.342 83.1687H313.331L313.309 83.1576L313.298 83.1465L313.276 83.1354L313.265 83.1244L313.254 83.1133L313.232 83.1022L313.221 83.0911L313.209 83.08L313.198 83.0689L313.187 83.0579L313.176 83.0468L313.165 83.0246L313.154 83.0135L313.143 82.9913L313.132 82.9803V82.9581L313.121 82.947L313.11 82.9248V82.9137V82.8916L313.099 82.8694V82.8583V82.8362V82.814V79.8764V79.8654V79.8432V79.821L313.11 79.7989V79.7878V79.7656L313.121 79.7545L313.132 79.7323V79.7213L313.143 79.6991L313.154 79.688L313.165 79.6658L313.176 79.6547L313.187 79.6437L313.198 79.6215L313.209 79.6104L313.221 79.5993L313.232 79.5882L313.254 79.5772L313.265 79.5661L313.276 79.555L313.298 79.5439H313.309L313.331 79.5328L313.342 79.5217H313.365L313.376 79.5106H313.398H313.42L313.431 79.4996H313.453H313.475H313.498H313.509L313.531 79.5106H313.553H313.575L313.586 79.5217H313.608L313.62 79.5328L313.642 79.5439H313.653L313.675 79.555L313.686 79.5661L313.697 79.5772L313.719 79.5882L313.73 79.5993L313.742 79.6104L313.753 79.6215L313.764 79.6437L313.775 79.6547L313.786 79.6658L313.797 79.688L313.808 79.6991L313.819 79.7213V79.7323L313.83 79.7545L313.841 79.7656V79.7878V79.7989L313.852 79.821V79.8432V79.8654V79.8764V80.3642H315.238V79.7656L315.227 79.688V79.6547V79.6104L315.216 79.5772V79.5439L315.205 79.5106L315.194 79.4774L315.183 79.4441L315.171 79.4109L315.16 79.3776L315.149 79.3444L315.127 79.3111L315.116 79.2889L315.083 79.2224L315.038 79.167L315.005 79.1116L314.95 79.0672L314.905 79.0118L314.85 78.9675L314.795 78.9231L314.739 78.8788L314.684 78.8455L314.617 78.8012L314.551 78.7679L314.484 78.7347L314.407 78.7014L314.34 78.6793L314.263 78.6571L314.107 78.6128L313.952 78.5795L313.786 78.5462L313.62 78.5352H313.453H313.287L313.132 78.5462L312.966 78.5684L312.81 78.6017L312.655 78.646L312.578 78.6682L312.511 78.7014L312.433 78.7236L312.367 78.7569L312.3 78.7901L312.234 78.8345L312.179 78.8677L312.123 78.912L312.068 78.9564L312.012 79.0007L311.957 79.0562L311.912 79.1005L311.879 79.1559L311.835 79.2113L311.802 79.2668L311.791 79.3L311.768 79.3333L311.757 79.3555L311.746 79.3887L311.735 79.422L311.724 79.4552L311.713 79.4885L311.702 79.5217V79.555L311.691 79.5993V79.6326V79.6658L311.68 79.7434V83.0468V83.0911L311.691 83.1465V83.1909V83.2352L311.702 83.2796L311.713 83.3239L311.724 83.3682L311.735 83.4126L311.746 83.4458L311.757 83.4902L311.779 83.5234L311.791 83.5567L311.813 83.5899L311.835 83.6232L311.846 83.6564L311.868 83.6897L311.901 83.723L311.924 83.7562L311.946 83.7784L311.968 83.8116L312.001 83.8338L312.023 83.856L312.09 83.9114L312.145 83.9557L312.212 83.989L312.278 84.0223L312.356 84.0555L312.422 84.0888L312.5 84.122L312.578 84.1442L312.655 84.1664L312.81 84.1996L312.966 84.2218L313.132 84.244H313.287L313.431 84.255L313.564 84.244Z" fill="#074CA1"/>
<g filter="url(#filter7_d_3341_67488)">
<rect x="342.594" y="103.166" width="38.4941" height="38.4941" rx="10" fill="white"/>
</g>
<g clip-path="url(#clip1_3341_67488)">
<path d="M370.794 126.732L367.831 118.008L367.829 118.002H367.771L367.161 119.795L366.05 123.059L366.047 123.056C365.662 122.693 365.119 122.466 364.435 122.381L364.226 122.358L364.433 122.33C365.561 122.113 366.32 121.351 366.32 120.433C366.32 119.174 365.213 118.296 363.627 118.296H360.327V118.359H361.286V124.864L358.957 118.008L358.955 118.002H358.897L358.286 119.795L355.933 126.71L355.918 126.711C355.878 126.717 355.838 126.721 355.799 126.724C355.74 126.729 355.681 126.732 355.622 126.732H353.244L357.764 118.359L357.798 118.296H352.269V120.886H352.328C352.338 119.625 353.025 118.359 354.543 118.359H356.375L351.82 126.795H357.956V124.313H357.897C357.889 125.413 357.306 126.457 356.039 126.693L355.999 126.7L356.964 123.863H359.668L360.643 126.732H359.681V126.795H363.454V126.732H362.489V122.404H363.603C364.736 122.404 365.386 122.946 365.386 123.89V124.657C365.386 124.742 365.392 124.866 365.397 124.969V124.973L364.799 126.732H364.017V126.794H365.636V126.732H364.862L365.407 125.13C365.408 125.145 365.409 125.155 365.409 125.155L365.424 125.299L365.438 125.395C365.529 125.985 365.741 126.419 366.066 126.685L366.113 126.721C366.36 126.905 366.667 126.998 367.026 126.998C367.502 126.998 367.819 126.871 368.081 126.573L368.047 126.538C367.806 126.776 367.603 126.873 367.349 126.873C366.917 126.873 366.691 126.312 366.691 125.759V124.683C366.693 124.417 366.654 124.151 366.575 123.898L366.564 123.865V123.863H368.542L369.517 126.732H368.556V126.795H371.82V126.732L370.794 126.732ZM356.985 123.8L358.318 119.886L359.647 123.8H356.985ZM362.489 122.341V118.359H363.339C364.475 118.359 365.075 119.081 365.075 120.447C365.075 121.898 364.731 122.341 363.603 122.341H362.489ZM366.541 123.8L366.536 123.785C366.448 123.556 366.32 123.347 366.159 123.169L366.103 123.11L366.097 123.104L367.191 119.886L368.52 123.8H366.541Z" fill="black"/>
</g>
<defs>
<filter id="filter0_d_3341_67488" x="-11.25" y="76.8145" width="102.062" height="102.061" filterUnits="userSpaceOnUse" color-interpolation-filters="sRGB">
<feFlood flood-opacity="0" result="BackgroundImageFix"/>
<feColorMatrix in="SourceAlpha" type="matrix" values="0 0 0 0 0 0 0 0 0 0 0 0 0 0 0 0 0 0 127 0" result="hardAlpha"/>
<feOffset dy="4"/>
<feGaussianBlur stdDeviation="15"/>
<feComposite in2="hardAlpha" operator="out"/>
<feColorMatrix type="matrix" values="0 0 0 0 0.910434 0 0 0 0 0.925012 0 0 0 0 0.954167 0 0 0 1 0"/>
<feBlend mode="normal" in2="BackgroundImageFix" result="effect1_dropShadow_3341_67488"/>
<feBlend mode="normal" in="SourceGraphic" in2="effect1_dropShadow_3341_67488" result="shape"/>
</filter>
<filter id="filter1_d_3341_67488" x="-32.9609" y="0.464844" width="115.273" height="115.277" filterUnits="userSpaceOnUse" color-interpolation-filters="sRGB">
<feFlood flood-opacity="0" result="BackgroundImageFix"/>
<feColorMatrix in="SourceAlpha" type="matrix" values="0 0 0 0 0 0 0 0 0 0 0 0 0 0 0 0 0 0 127 0" result="hardAlpha"/>
<feOffset dy="4"/>
<feGaussianBlur stdDeviation="15"/>
<feComposite in2="hardAlpha" operator="out"/>
<feColorMatrix type="matrix" values="0 0 0 0 0.910434 0 0 0 0 0.925012 0 0 0 0 0.954167 0 0 0 1 0"/>
<feBlend mode="normal" in2="BackgroundImageFix" result="effect1_dropShadow_3341_67488"/>
<feBlend mode="normal" in="SourceGraphic" in2="effect1_dropShadow_3341_67488" result="shape"/>
</filter>
<filter id="filter2_d_3341_67488" x="306.812" y="7.89453" width="114.133" height="114.131" filterUnits="userSpaceOnUse" color-interpolation-filters="sRGB">
<feFlood flood-opacity="0" result="BackgroundImageFix"/>
<feColorMatrix in="SourceAlpha" type="matrix" values="0 0 0 0 0 0 0 0 0 0 0 0 0 0 0 0 0 0 127 0" result="hardAlpha"/>
<feOffset dy="4"/>
<feGaussianBlur stdDeviation="15"/>
<feComposite in2="hardAlpha" operator="out"/>
<feColorMatrix type="matrix" values="0 0 0 0 0.910434 0 0 0 0 0.925012 0 0 0 0 0.954167 0 0 0 1 0"/>
<feBlend mode="normal" in2="BackgroundImageFix" result="effect1_dropShadow_3341_67488"/>
<feBlend mode="normal" in="SourceGraphic" in2="effect1_dropShadow_3341_67488" result="shape"/>
</filter>
<filter id="filter3_d_3341_67488" x="102.797" y="29.8926" width="117.32" height="117.322" filterUnits="userSpaceOnUse" color-interpolation-filters="sRGB">
<feFlood flood-opacity="0" result="BackgroundImageFix"/>
<feColorMatrix in="SourceAlpha" type="matrix" values="0 0 0 0 0 0 0 0 0 0 0 0 0 0 0 0 0 0 127 0" result="hardAlpha"/>
<feOffset dy="4"/>
<feGaussianBlur stdDeviation="15"/>
<feComposite in2="hardAlpha" operator="out"/>
<feColorMatrix type="matrix" values="0 0 0 0 0.910434 0 0 0 0 0.925012 0 0 0 0 0.954167 0 0 0 1 0"/>
<feBlend mode="normal" in2="BackgroundImageFix" result="effect1_dropShadow_3341_67488"/>
<feBlend mode="normal" in="SourceGraphic" in2="effect1_dropShadow_3341_67488" result="shape"/>
</filter>
<filter id="filter4_d_3341_67488" x="170.781" y="8.23633" width="115.273" height="115.277" filterUnits="userSpaceOnUse" color-interpolation-filters="sRGB">
<feFlood flood-opacity="0" result="BackgroundImageFix"/>
<feColorMatrix in="SourceAlpha" type="matrix" values="0 0 0 0 0 0 0 0 0 0 0 0 0 0 0 0 0 0 127 0" result="hardAlpha"/>
<feOffset dy="4"/>
<feGaussianBlur stdDeviation="15"/>
<feComposite in2="hardAlpha" operator="out"/>
<feColorMatrix type="matrix" values="0 0 0 0 0.910434 0 0 0 0 0.925012 0 0 0 0 0.954167 0 0 0 1 0"/>
<feBlend mode="normal" in2="BackgroundImageFix" result="effect1_dropShadow_3341_67488"/>
<feBlend mode="normal" in="SourceGraphic" in2="effect1_dropShadow_3341_67488" result="shape"/>
</filter>
<filter id="filter5_d_3341_67488" x="35.0547" y="16.709" width="115.18" height="115.18" filterUnits="userSpaceOnUse" color-interpolation-filters="sRGB">
<feFlood flood-opacity="0" result="BackgroundImageFix"/>
<feColorMatrix in="SourceAlpha" type="matrix" values="0 0 0 0 0 0 0 0 0 0 0 0 0 0 0 0 0 0 127 0" result="hardAlpha"/>
<feOffset dy="4"/>
<feGaussianBlur stdDeviation="15"/>
<feComposite in2="hardAlpha" operator="out"/>
<feColorMatrix type="matrix" values="0 0 0 0 0.910434 0 0 0 0 0.925012 0 0 0 0 0.954167 0 0 0 1 0"/>
<feBlend mode="normal" in2="BackgroundImageFix" result="effect1_dropShadow_3341_67488"/>
<feBlend mode="normal" in="SourceGraphic" in2="effect1_dropShadow_3341_67488" result="shape"/>
</filter>
<filter id="filter6_d_3341_67488" x="238.562" y="28.0645" width="114.555" height="114.553" filterUnits="userSpaceOnUse" color-interpolation-filters="sRGB">
<feFlood flood-opacity="0" result="BackgroundImageFix"/>
<feColorMatrix in="SourceAlpha" type="matrix" values="0 0 0 0 0 0 0 0 0 0 0 0 0 0 0 0 0 0 127 0" result="hardAlpha"/>
<feOffset dy="4"/>
<feGaussianBlur stdDeviation="15"/>
<feComposite in2="hardAlpha" operator="out"/>
<feColorMatrix type="matrix" values="0 0 0 0 0.910434 0 0 0 0 0.925012 0 0 0 0 0.954167 0 0 0 1 0"/>
<feBlend mode="normal" in2="BackgroundImageFix" result="effect1_dropShadow_3341_67488"/>
<feBlend mode="normal" in="SourceGraphic" in2="effect1_dropShadow_3341_67488" result="shape"/>
</filter>
<filter id="filter7_d_3341_67488" x="312.594" y="77.166" width="98.4922" height="98.4941" filterUnits="userSpaceOnUse" color-interpolation-filters="sRGB">
<feFlood flood-opacity="0" result="BackgroundImageFix"/>
<feColorMatrix in="SourceAlpha" type="matrix" values="0 0 0 0 0 0 0 0 0 0 0 0 0 0 0 0 0 0 127 0" result="hardAlpha"/>
<feOffset dy="4"/>
<feGaussianBlur stdDeviation="15"/>
<feComposite in2="hardAlpha" operator="out"/>
<feColorMatrix type="matrix" values="0 0 0 0 0.910434 0 0 0 0 0.925012 0 0 0 0 0.954167 0 0 0 1 0"/>
<feBlend mode="normal" in2="BackgroundImageFix" result="effect1_dropShadow_3341_67488"/>
<feBlend mode="normal" in="SourceGraphic" in2="effect1_dropShadow_3341_67488" result="shape"/>
</filter>
<linearGradient id="paint0_linear_3341_67488" x1="146.199" y1="88.7353" x2="142.39" y2="81.7868" gradientUnits="userSpaceOnUse">
<stop stop-color="#F47026"/>
<stop offset="0.375" stop-color="#F47026"/>
<stop offset="0.949" stop-color="#FBC195"/>
<stop offset="1" stop-color="#FBC195"/>
</linearGradient>
<linearGradient id="paint1_linear_3341_67488" x1="146.513" y1="88.5629" x2="142.705" y2="81.6144" gradientUnits="userSpaceOnUse">
<stop stop-color="#F47026"/>
<stop offset="0.375" stop-color="#F47026"/>
<stop offset="0.949" stop-color="#FBC195"/>
<stop offset="1" stop-color="#FBC195"/>
</linearGradient>
<linearGradient id="paint2_linear_3341_67488" x1="141.49" y1="86.1713" x2="147.505" y2="86.1713" gradientUnits="userSpaceOnUse">
<stop stop-color="#F57D34"/>
<stop offset="0.534" stop-color="#F47026"/>
<stop offset="1" stop-color="#F47026"/>
</linearGradient>
<clipPath id="clip0_3341_67488">
<rect width="28.4283" height="14.2142" fill="white" transform="translate(213.422 55.6797)"/>
</clipPath>
<clipPath id="clip1_3341_67488">
<rect width="20" height="9" fill="white" transform="translate(351.82 118)"/>
</clipPath>
</defs>
</svg>
