<svg width="178" height="55" viewBox="0 0 178 55" fill="none" xmlns="http://www.w3.org/2000/svg">
<path d="M163.825 0.127129H14.1828C13.6373 0.127129 13.0984 0.127129 12.5544 0.129829C12.099 0.132529 11.6472 0.140372 11.1875 0.146974C10.1886 0.157641 9.19215 0.237391 8.20667 0.385531C7.22258 0.536896 6.26931 0.822263 5.37912 1.23198C4.49001 1.64516 3.67761 2.18205 2.97138 2.82316C2.26145 3.46248 1.66966 4.20144 1.21878 5.01163C0.766657 5.82021 0.453152 6.68667 0.289095 7.5811C0.123479 8.4744 0.0343588 9.378 0.0225356 10.2838C0.00873161 10.6977 0.00727386 11.113 0 11.5269V42.7311C0.00727386 43.1503 0.00873161 43.5564 0.0225356 43.9757C0.0343624 44.8814 0.123482 45.785 0.289095 46.6782C0.452699 47.5732 0.766222 48.4401 1.21878 49.249C1.66946 50.0566 2.26132 50.7926 2.97138 51.4283C3.67493 52.0723 4.48786 52.6095 5.37912 53.0195C6.26931 53.4304 7.22247 53.7174 8.20667 53.8711C9.19232 54.0181 10.1887 54.0979 11.1875 54.1098C11.6472 54.119 12.099 54.1243 12.5544 54.1243C13.0984 54.127 13.6374 54.127 14.1828 54.127H163.825C164.36 54.127 164.903 54.127 165.438 54.1243C165.891 54.1243 166.356 54.119 166.809 54.1098C167.806 54.0985 168.8 54.0187 169.784 53.8711C170.771 53.7163 171.728 53.4294 172.622 53.0195C173.513 52.6093 174.325 52.0721 175.028 51.4283C175.736 50.7901 176.329 50.0546 176.786 49.249C177.235 48.4395 177.545 47.5726 177.707 46.6782C177.872 45.7848 177.965 44.8815 177.983 43.9757C177.988 43.5564 177.988 43.1503 177.988 42.7311C178 42.2406 178 41.7529 178 41.2545V13.0009C178 12.5065 178 12.0161 177.988 11.5269C177.988 11.113 177.988 10.6977 177.983 10.2837C177.965 9.37787 177.872 8.47447 177.707 7.58105C177.545 6.68714 177.234 5.82074 176.786 5.01157C175.867 3.38763 174.411 2.06576 172.622 1.23186C171.728 0.823142 170.771 0.537852 169.784 0.38541C168.801 0.236617 167.806 0.156839 166.809 0.146785C166.356 0.140197 165.891 0.132286 165.438 0.129653C164.903 0.126953 164.36 0.126953 163.825 0.126953V0.127129Z" fill="#A6A6A6"/>
<path d="M12.5599 52.9459C12.1067 52.9459 11.6645 52.9407 11.2148 52.9315C10.2833 52.9205 9.35399 52.8469 8.43447 52.7113C7.57706 52.5773 6.74646 52.328 5.97007 51.9716C5.2008 51.6182 4.49916 51.1549 3.89204 50.5992C3.27613 50.0502 2.76335 49.4133 2.37403 48.714C1.98042 48.0101 1.70802 47.2556 1.56632 46.4767C1.41329 45.6399 1.3305 44.7937 1.31865 43.9455C1.30922 43.6608 1.29688 42.7128 1.29688 42.7128V11.5272C1.29688 11.5272 1.31002 10.5938 1.31873 10.3195C1.33007 9.47267 1.41238 8.6278 1.56495 7.79226C1.70692 7.01131 1.97953 6.25464 2.37335 5.54843C2.76123 4.84956 3.27116 4.21225 3.88337 3.6612C4.49488 3.10493 5.19876 2.63915 5.96934 2.28087C6.74395 1.92567 7.57298 1.67813 8.42865 1.54656C9.35119 1.40962 10.2837 1.33559 11.2185 1.32508L12.5607 1.30859H165.429L166.787 1.32574C167.713 1.33573 168.637 1.4091 169.551 1.54523C170.416 1.67846 171.253 1.92772 172.037 2.28483C173.58 3.00687 174.837 4.1492 175.629 5.55172C176.017 6.25306 176.285 7.00356 176.425 7.77776C176.58 8.62016 176.666 9.47166 176.684 10.3255C176.688 10.7078 176.688 11.1185 176.688 11.5272C176.7 12.0334 176.7 12.5153 176.7 13.0011V41.2547C176.7 41.7451 176.7 42.2237 176.688 42.7062C176.688 43.1452 176.688 43.5474 176.682 43.9613C176.665 44.7999 176.58 45.6362 176.428 46.4635C176.289 47.2479 176.018 48.0083 175.625 48.718C175.233 49.4098 174.723 50.0411 174.114 50.5887C173.506 51.1473 172.803 51.6134 172.032 51.9691C171.251 52.3282 170.415 52.5784 169.551 52.7113C168.632 52.8476 167.702 52.9212 166.771 52.9315C166.335 52.9407 165.879 52.9459 165.436 52.9459L163.823 52.9486L12.5599 52.9459Z" fill="black"/>
<path d="M42.3305 27.5326C42.3448 26.4058 42.6408 25.301 43.1908 24.3209C43.7408 23.3409 44.527 22.5175 45.4762 21.9273C44.8732 21.0563 44.0777 20.3396 43.1528 19.8339C42.228 19.3283 41.1993 19.0477 40.1485 19.0144C37.907 18.7765 35.7339 20.371 34.5916 20.371C33.4273 20.371 31.6686 19.0381 29.7748 19.0775C28.5498 19.1175 27.356 19.4778 26.3096 20.1231C25.2632 20.7685 24.4 21.677 23.8041 22.7601C21.2224 27.2804 23.1481 33.9238 25.6211 37.5777C26.8583 39.367 28.3044 41.3656 30.1965 41.2947C32.048 41.217 32.7395 40.1006 34.9745 40.1006C37.1887 40.1006 37.8375 41.2947 39.768 41.2496C41.7548 41.217 43.0065 39.4525 44.2004 37.6463C45.0894 36.3714 45.7735 34.9624 46.2273 33.4714C45.073 32.9777 44.088 32.1513 43.395 31.0952C42.7021 30.0391 42.3318 28.8 42.3305 27.5326V27.5326Z" fill="white"/>
<path d="M38.6853 16.6108C39.7685 15.2956 40.3022 13.6051 40.173 11.8984C38.518 12.0742 36.9892 12.8742 35.8913 14.1389C35.3545 14.7568 34.9434 15.4755 34.6814 16.2542C34.4195 17.0328 34.3118 17.856 34.3646 18.6768C35.1924 18.6854 36.0114 18.5039 36.7598 18.1461C37.5082 17.7882 38.1665 17.2632 38.6853 16.6108Z" fill="white"/>
<path d="M65.7347 36.7682H59.4163L57.8989 41.2994H55.2227L61.2074 24.5352H63.9879L69.9726 41.2994H67.2507L65.7347 36.7682ZM60.0706 34.6773H65.079L62.6101 27.3235H62.541L60.0706 34.6773Z" fill="white"/>
<path d="M82.8959 35.1874C82.8959 38.9855 80.8858 41.4258 77.8524 41.4258C77.0839 41.4665 76.3197 41.2874 75.6472 40.9093C74.9747 40.5311 74.4211 39.969 74.0498 39.2874H73.9924V45.3413H71.5117V29.0755H73.9129V31.1084H73.9586C74.347 30.43 74.9099 29.8709 75.5875 29.4904C76.2651 29.1099 77.0321 28.9223 77.8067 28.9476C80.874 28.9476 82.8959 31.3997 82.8959 35.1874ZM80.3461 35.1874C80.3461 32.7128 79.0816 31.0859 77.1523 31.0859C75.2569 31.0859 73.982 32.7471 73.982 35.1874C73.982 37.65 75.2569 39.2993 77.1523 39.2993C79.0816 39.2993 80.3461 37.6843 80.3461 35.1874Z" fill="white"/>
<path d="M96.2006 35.1873C96.2006 38.9855 94.1905 41.4258 91.157 41.4258C90.3886 41.4664 89.6244 41.2874 88.9519 40.9092C88.2794 40.5311 87.7258 39.969 87.3545 39.2874H87.2971V45.3413H84.8164V29.0754H87.2176V31.1083H87.2632C87.6516 30.43 88.2145 29.8709 88.8922 29.4904C89.5698 29.1099 90.3367 28.9223 91.1114 28.9476C94.1787 28.9476 96.2006 31.3997 96.2006 35.1873ZM93.6508 35.1873C93.6508 32.7128 92.3863 31.0859 90.457 31.0859C88.5616 31.0859 87.2867 32.7471 87.2867 35.1873C87.2867 37.65 88.5616 39.2993 90.457 39.2993C92.3863 39.2993 93.6508 37.6843 93.6508 35.1873H93.6508Z" fill="white"/>
<path d="M104.989 36.6267C105.172 38.2892 106.769 39.3807 108.951 39.3807C111.042 39.3807 112.547 38.2891 112.547 36.7902C112.547 35.4889 111.639 34.7098 109.491 34.1759L107.343 33.6525C104.299 32.9089 102.886 31.4693 102.886 29.1331C102.886 26.2407 105.378 24.2539 108.918 24.2539C112.42 24.2539 114.821 26.2407 114.902 29.1331H112.398C112.248 27.4601 110.881 26.4503 108.882 26.4503C106.884 26.4503 105.517 27.472 105.517 28.9591C105.517 30.1443 106.39 30.8417 108.526 31.3756L110.353 31.8291C113.754 32.6426 115.167 34.0242 115.167 36.4763C115.167 39.6127 112.697 41.577 108.768 41.577C105.092 41.577 102.61 39.6588 102.449 36.6266L104.989 36.6267Z" fill="white"/>
<path d="M120.519 26.1836V29.0761H122.817V31.0628H120.519V37.8009C120.519 38.8477 120.979 39.3355 121.99 39.3355C122.262 39.3307 122.535 39.3113 122.806 39.2775V41.2524C122.351 41.3382 121.89 41.3771 121.428 41.3684C118.981 41.3684 118.027 40.4389 118.027 38.0685V31.0628H116.27V29.0761H118.027V26.1836H120.519Z" fill="white"/>
<path d="M124.152 35.1899C124.152 31.3443 126.392 28.9277 129.884 28.9277C133.388 28.9277 135.617 31.3442 135.617 35.1899C135.617 39.0461 133.4 41.4521 129.884 41.4521C126.37 41.4521 124.152 39.0461 124.152 35.1899ZM133.09 35.1899C133.09 32.5519 131.894 30.9949 129.884 30.9949C127.874 30.9949 126.68 32.5638 126.68 35.1899C126.68 37.8385 127.874 39.3836 129.884 39.3836C131.894 39.3836 133.09 37.8385 133.09 35.1899H133.09Z" fill="white"/>
<path d="M137.66 29.0753H140.026V31.1557H140.084C140.244 30.5059 140.62 29.9317 141.149 29.5296C141.679 29.1275 142.329 28.9219 142.991 28.9474C143.276 28.9464 143.561 28.9778 143.84 29.041V31.3877C143.48 31.2762 143.103 31.225 142.726 31.2361C142.365 31.2213 142.006 31.2856 141.673 31.4245C141.339 31.5634 141.039 31.7736 140.794 32.0408C140.548 32.3079 140.363 32.6257 140.25 32.9722C140.137 33.3187 140.1 33.6857 140.141 34.0482V41.2978H137.66L137.66 29.0753Z" fill="white"/>
<path d="M155.281 37.7106C154.947 39.9294 152.81 41.4521 150.077 41.4521C146.561 41.4521 144.379 39.0698 144.379 35.2479C144.379 31.4142 146.573 28.9277 149.973 28.9277C153.316 28.9277 155.419 31.2507 155.419 34.9566V35.8161H146.883V35.9677C146.844 36.4176 146.899 36.8707 147.046 37.2971C147.194 37.7235 147.429 38.1133 147.736 38.4408C148.044 38.7682 148.416 39.0257 148.83 39.1963C149.243 39.3668 149.688 39.4464 150.134 39.4297C150.72 39.4853 151.309 39.348 151.812 39.0382C152.314 38.7285 152.705 38.2629 152.925 37.7106L155.281 37.7106ZM146.895 34.0627H152.937C152.959 33.6583 152.899 33.2535 152.759 32.8739C152.619 32.4943 152.403 32.1479 152.125 31.8567C151.847 31.5654 151.512 31.3354 151.141 31.1812C150.771 31.027 150.373 30.9519 149.973 30.9606C149.569 30.9582 149.168 31.0367 148.794 31.1916C148.42 31.3465 148.081 31.5747 147.795 31.8631C147.508 32.1515 147.282 32.4944 147.127 32.8719C146.973 33.2495 146.894 33.6542 146.895 34.0627V34.0627Z" fill="white"/>
<path d="M59.7676 11.7825C60.2877 11.7452 60.8096 11.8237 61.2956 12.0125C61.7817 12.2013 62.2197 12.4956 62.5783 12.8742C62.9368 13.2528 63.2068 13.7063 63.3689 14.2019C63.5309 14.6975 63.581 15.2228 63.5154 15.7401C63.5154 18.2847 62.1401 19.7474 59.7676 19.7474H56.8906V11.7825H59.7676ZM58.1277 18.621H59.6294C60.0011 18.6432 60.373 18.5823 60.7181 18.4426C61.0632 18.303 61.3728 18.0881 61.6244 17.8137C61.8761 17.5393 62.0633 17.2123 62.1726 16.8564C62.2819 16.5005 62.3104 16.1247 62.2561 15.7564C62.3065 15.3895 62.275 15.016 62.1641 14.6627C62.0531 14.3095 61.8654 13.9851 61.6144 13.7129C61.3633 13.4406 61.0552 13.2273 60.712 13.0882C60.3689 12.949 59.9992 12.8875 59.6294 12.908H58.1277V18.621Z" fill="white"/>
<path d="M64.9118 16.7379C64.8741 16.3429 64.9192 15.9443 65.0445 15.5678C65.1698 15.1913 65.3723 14.8451 65.6392 14.5514C65.9061 14.2578 66.2315 14.0232 66.5943 13.8626C66.9572 13.7021 67.3497 13.6191 67.7465 13.6191C68.1433 13.6191 68.5357 13.7021 68.8986 13.8626C69.2615 14.0232 69.5868 14.2578 69.8537 14.5514C70.1206 14.8451 70.3232 15.1913 70.4484 15.5678C70.5737 15.9443 70.6189 16.3429 70.5811 16.7379C70.6196 17.1333 70.575 17.5324 70.45 17.9095C70.3251 18.2867 70.1226 18.6335 69.8557 18.9277C69.5887 19.2219 69.2631 19.457 68.8999 19.6179C68.5366 19.7788 68.1438 19.862 67.7465 19.862C67.3492 19.862 66.9563 19.7788 66.593 19.6179C66.2298 19.457 65.9042 19.2219 65.6373 18.9277C65.3703 18.6335 65.1679 18.2867 65.0429 17.9095C64.918 17.5324 64.8733 17.1333 64.9118 16.7379V16.7379ZM69.3609 16.7379C69.3609 15.435 68.7756 14.673 67.7484 14.673C66.7173 14.673 66.1372 15.435 66.1372 16.7379C66.1372 18.0513 66.7173 18.8073 67.7484 18.8073C68.7757 18.8073 69.361 18.046 69.361 16.7379H69.3609Z" fill="white"/>
<path d="M78.117 19.7452H76.8864L75.6441 15.3182H75.5503L74.3132 19.7452H73.0943L71.4375 13.7344H72.6407L73.7175 18.321H73.8061L75.0419 13.7344H76.1799L77.4157 18.321H77.5096L78.5811 13.7344H79.7673L78.117 19.7452Z" fill="white"/>
<path d="M81.1641 13.7352H82.306V14.6901H82.3946C82.545 14.3471 82.7986 14.0596 83.1202 13.8677C83.4417 13.6757 83.8151 13.5889 84.1884 13.6192C84.4808 13.5972 84.7745 13.6413 85.0476 13.7482C85.3207 13.8551 85.5663 14.0221 85.7661 14.2368C85.9659 14.4515 86.1148 14.7085 86.2019 14.9885C86.2889 15.2686 86.3118 15.5647 86.2689 15.8548V19.7459H85.0826V16.1527C85.0826 15.1868 84.6629 14.7064 83.7856 14.7064C83.587 14.6971 83.3888 14.7309 83.2045 14.8055C83.0202 14.88 82.8542 14.9935 82.7179 15.1382C82.5816 15.2828 82.4781 15.4553 82.4147 15.6437C82.3512 15.8321 82.3293 16.0319 82.3503 16.2296V19.746H81.1641L81.1641 13.7352Z" fill="white"/>
<path d="M88.1562 11.3887H89.3425V19.7459H88.1562V11.3887Z" fill="white"/>
<path d="M90.9899 16.736C90.9522 16.341 90.9974 15.9424 91.1227 15.5659C91.248 15.1894 91.4506 14.8432 91.7175 14.5495C91.9844 14.2559 92.3098 14.0212 92.6727 13.8607C93.0356 13.7001 93.4281 13.6172 93.8249 13.6172C94.2217 13.6172 94.6142 13.7001 94.9771 13.8607C95.34 14.0212 95.6654 14.2559 95.9323 14.5495C96.1992 14.8432 96.4018 15.1894 96.5271 15.5659C96.6524 15.9424 96.6976 16.341 96.6598 16.736C96.6983 17.1315 96.6536 17.5306 96.5286 17.9077C96.4037 18.2848 96.2012 18.6316 95.9342 18.9259C95.6672 19.2201 95.3416 19.4552 94.9784 19.6161C94.6151 19.777 94.2222 19.8601 93.8249 19.8601C93.4276 19.8601 93.0347 19.777 92.6714 19.6161C92.3082 19.4552 91.9826 19.2201 91.7156 18.9259C91.4486 18.6316 91.2461 18.2848 91.1211 17.9077C90.9962 17.5306 90.9515 17.1315 90.9899 16.736V16.736ZM95.439 16.736C95.439 15.4331 94.8537 14.6712 93.8265 14.6712C92.7954 14.6712 92.2153 15.4331 92.2153 16.7361C92.2153 18.0494 92.7954 18.8055 93.8265 18.8055C94.8537 18.8055 95.439 18.0442 95.439 16.736H95.439Z" fill="white"/>
<path d="M97.9102 18.0461C97.9102 16.9641 98.7158 16.3403 100.146 16.2517L101.774 16.1578V15.639C101.774 15.0042 101.354 14.6457 100.543 14.6457C99.8812 14.6457 99.4223 14.8888 99.2906 15.3138H98.1422C98.2634 14.2814 99.2346 13.6191 100.598 13.6191C102.105 13.6191 102.955 14.3693 102.955 15.639V19.7459H101.813V18.9012H101.719C101.529 19.2042 101.261 19.4512 100.944 19.6171C100.627 19.7829 100.271 19.8615 99.9138 19.845C99.6614 19.8712 99.4064 19.8443 99.1651 19.7659C98.9238 19.6876 98.7016 19.5595 98.5128 19.3901C98.3241 19.2206 98.1729 19.0134 98.0691 18.7819C97.9653 18.5504 97.9112 18.2998 97.9102 18.0461V18.0461ZM101.774 17.5325V17.0299L100.306 17.1238C99.4784 17.1792 99.1029 17.4608 99.1029 17.9907C99.1029 18.5316 99.5722 18.8465 100.218 18.8465C100.407 18.8656 100.598 18.8465 100.779 18.7903C100.961 18.7341 101.129 18.642 101.274 18.5194C101.42 18.3968 101.539 18.2463 101.624 18.0767C101.71 17.9072 101.761 17.7221 101.774 17.5325V17.5325Z" fill="white"/>
<path d="M104.512 16.7379C104.512 14.8386 105.488 13.6354 107.007 13.6354C107.382 13.6181 107.755 13.7081 108.082 13.8948C108.408 14.0815 108.675 14.3573 108.85 14.6899H108.939V11.3887H110.125V19.7459H108.988V18.7962H108.894C108.705 19.1266 108.43 19.399 108.097 19.5838C107.764 19.7687 107.387 19.859 107.007 19.845C105.478 19.845 104.512 18.6418 104.512 16.7379ZM105.737 16.7379C105.737 18.0128 106.338 18.78 107.343 18.78C108.343 18.78 108.961 18.0017 108.961 16.7431C108.961 15.4904 108.336 14.7011 107.343 14.7011C106.345 14.7011 105.737 15.4734 105.737 16.7379H105.737Z" fill="white"/>
<path d="M115.037 16.7379C114.999 16.3429 115.044 15.9443 115.17 15.5678C115.295 15.1913 115.497 14.8451 115.764 14.5514C116.031 14.2578 116.356 14.0232 116.719 13.8626C117.082 13.7021 117.475 13.6191 117.871 13.6191C118.268 13.6191 118.661 13.7021 119.024 13.8626C119.386 14.0232 119.712 14.2578 119.979 14.5514C120.246 14.8451 120.448 15.1913 120.573 15.5678C120.699 15.9443 120.744 16.3429 120.706 16.7379C120.745 17.1333 120.7 17.5324 120.575 17.9095C120.45 18.2867 120.248 18.6335 119.981 18.9277C119.714 19.2219 119.388 19.457 119.025 19.6179C118.662 19.7788 118.269 19.862 117.871 19.862C117.474 19.862 117.081 19.7788 116.718 19.6179C116.355 19.457 116.029 19.2219 115.762 18.9277C115.495 18.6335 115.293 18.2867 115.168 17.9095C115.043 17.5324 114.998 17.1333 115.037 16.7379V16.7379ZM119.486 16.7379C119.486 15.435 118.901 14.673 117.873 14.673C116.842 14.673 116.262 15.435 116.262 16.7379C116.262 18.0513 116.842 18.8073 117.873 18.8073C118.901 18.8073 119.486 18.046 119.486 16.7379Z" fill="white"/>
<path d="M122.297 13.7352H123.439V14.6901H123.527C123.678 14.3471 123.931 14.0596 124.253 13.8677C124.575 13.6757 124.948 13.5889 125.321 13.6192C125.614 13.5972 125.907 13.6413 126.18 13.7482C126.454 13.8551 126.699 14.0221 126.899 14.2368C127.099 14.4515 127.248 14.7085 127.335 14.9885C127.422 15.2686 127.445 15.5647 127.402 15.8548V19.7459H126.215V16.1527C126.215 15.1868 125.796 14.7064 124.918 14.7064C124.72 14.6971 124.522 14.7309 124.337 14.8055C124.153 14.88 123.987 14.9935 123.851 15.1382C123.714 15.2828 123.611 15.4553 123.547 15.6437C123.484 15.8321 123.462 16.0319 123.483 16.2296V19.746H122.297V13.7352Z" fill="white"/>
<path d="M134.103 12.2383V13.7622H135.405V14.7614H134.103V17.8521C134.103 18.4818 134.362 18.7575 134.953 18.7575C135.104 18.757 135.255 18.7478 135.405 18.7301V19.7182C135.192 19.7563 134.976 19.7766 134.76 19.7788C133.44 19.7788 132.915 19.3147 132.915 18.1559V14.7613H131.961V13.7621H132.915V12.2383H134.103Z" fill="white"/>
<path d="M137.027 11.3887H138.203V14.7011H138.297C138.455 14.3549 138.715 14.0658 139.043 13.8731C139.371 13.6804 139.751 13.5935 140.13 13.6243C140.421 13.6085 140.712 13.6571 140.982 13.7666C141.252 13.8761 141.494 14.0438 141.692 14.2579C141.89 14.4719 142.038 14.7269 142.125 15.0048C142.213 15.2826 142.239 15.5764 142.2 15.8652V19.7459H141.012V16.1578C141.012 15.1977 140.565 14.7115 139.727 14.7115C139.523 14.6948 139.318 14.7228 139.126 14.7936C138.934 14.8644 138.76 14.9763 138.616 15.1215C138.472 15.2666 138.361 15.4415 138.292 15.6339C138.222 15.8263 138.196 16.0316 138.214 16.2354V19.7459H137.027L137.027 11.3887Z" fill="white"/>
<path d="M149.114 18.1211C148.953 18.6705 148.603 19.1457 148.127 19.4636C147.651 19.7815 147.078 19.9218 146.509 19.8601C146.113 19.8706 145.72 19.7947 145.356 19.6378C144.992 19.4809 144.667 19.2468 144.403 18.9516C144.139 18.6564 143.942 18.3073 143.826 17.9284C143.71 17.5495 143.679 17.15 143.733 16.7576C143.68 16.364 143.712 15.9636 143.828 15.5836C143.943 15.2036 144.139 14.8528 144.402 14.5551C144.665 14.2573 144.988 14.0195 145.351 13.8577C145.714 13.6959 146.107 13.6139 146.504 13.6173C148.177 13.6173 149.186 14.7599 149.186 16.6474V17.0614H144.941V17.1278C144.922 17.3484 144.95 17.5704 145.022 17.7797C145.095 17.9889 145.21 18.1807 145.361 18.3429C145.511 18.505 145.694 18.6338 145.898 18.7211C146.101 18.8084 146.321 18.8523 146.542 18.8498C146.826 18.8839 147.113 18.8328 147.368 18.703C147.622 18.5733 147.833 18.3707 147.972 18.1211L149.114 18.1211ZM144.941 16.184H147.977C147.992 15.9823 147.965 15.7797 147.897 15.5892C147.829 15.3986 147.721 15.2245 147.582 15.0778C147.443 14.9312 147.274 14.8153 147.087 14.7377C146.901 14.66 146.7 14.6223 146.498 14.6269C146.292 14.6243 146.089 14.6629 145.899 14.7402C145.709 14.8176 145.536 14.9322 145.391 15.0773C145.246 15.2224 145.131 15.3951 145.054 15.5852C144.977 15.7752 144.938 15.9789 144.941 16.184H144.941Z" fill="white"/>
</svg>
