<svg width="232" height="194" viewBox="0 0 232 194" fill="none" xmlns="http://www.w3.org/2000/svg">
<g filter="url(#filter0_d_3341_67422)">
<path d="M151.039 124.931C149.558 124.19 148.955 122.381 149.696 120.9L178.625 63.075L183.999 65.7633L155.07 123.588C154.329 125.069 152.52 125.671 151.039 124.931Z" fill="#4D4D4D"/>
<path d="M174.25 85.0602L172.592 84.248L151.508 124.98C151.508 124.98 152.323 125.344 153.415 124.903C154.557 124.442 154.779 123.937 154.779 123.937L174.25 85.0602Z" fill="#343434"/>
<path d="M183.992 65.7615L178.617 63.0723L168.893 82.5089L174.268 85.1981L183.992 65.7615Z" fill="#CCCCCC"/>
<path d="M188.604 51.851L187.643 58.2123C187.58 58.6213 187.795 59.0198 188.161 59.2033L193.916 62.0821C194.748 62.4984 194.557 63.7255 193.644 63.8769L187.296 64.9333C186.884 65.0002 186.57 65.3281 186.506 65.7371L185.545 72.0984C185.404 73.0152 184.177 73.2123 183.754 72.4012L180.793 66.6879C180.599 66.3176 180.204 66.12 179.792 66.1869L173.444 67.2433C172.531 67.3948 171.963 66.2909 172.612 65.6281L177.127 61.045C177.416 60.7488 177.48 60.3045 177.297 59.9307L174.336 54.2174C173.909 53.3957 174.781 52.5178 175.609 52.9235L181.363 55.8023C181.73 55.9858 182.178 55.9189 182.467 55.6228L186.982 51.0396C187.631 50.3768 188.745 50.9342 188.604 51.851Z" fill="url(#paint0_linear_3341_67422)"/>
<path fill-rule="evenodd" clip-rule="evenodd" d="M178.804 42.7007C178.965 42.6587 179.129 42.7548 179.171 42.9154L181.193 50.6455C181.235 50.8061 181.139 50.9704 180.978 51.0124C180.818 51.0544 180.654 50.9583 180.612 50.7977L178.589 43.0676C178.547 42.907 178.643 42.7427 178.804 42.7007Z" fill="url(#paint1_linear_3341_67422)"/>
<path fill-rule="evenodd" clip-rule="evenodd" d="M172.673 60.0813C172.669 60.2472 172.532 60.3784 172.366 60.3743L164.71 60.1857C164.544 60.1816 164.413 60.0437 164.417 59.8778C164.421 59.7118 164.559 59.5806 164.725 59.5847L172.38 59.7734C172.546 59.7775 172.678 59.9153 172.673 60.0813Z" fill="url(#paint2_linear_3341_67422)"/>
<path fill-rule="evenodd" clip-rule="evenodd" d="M200.182 53.3936C200.245 53.5474 200.171 53.7228 200.017 53.7854L192.618 56.8022C192.464 56.8649 192.289 56.7911 192.226 56.6374C192.164 56.4837 192.237 56.3083 192.391 56.2456L199.79 53.2288C199.944 53.1661 200.119 53.2399 200.182 53.3936Z" fill="url(#paint3_linear_3341_67422)"/>
<path fill-rule="evenodd" clip-rule="evenodd" d="M195.054 75.2086C194.923 75.3114 194.734 75.289 194.631 75.1587L189.89 69.1452C189.787 69.0149 189.809 68.8259 189.94 68.7231C190.07 68.6203 190.259 68.6427 190.362 68.773L195.103 74.7865C195.206 74.9168 195.184 75.1058 195.054 75.2086Z" fill="url(#paint4_linear_3341_67422)"/>
<path fill-rule="evenodd" clip-rule="evenodd" d="M171.723 51.6194C171.649 51.7678 171.468 51.828 171.319 51.7537L167.272 49.7287C167.123 49.6544 167.063 49.4738 167.137 49.3254C167.212 49.1769 167.392 49.1168 167.541 49.191L171.588 51.2161C171.737 51.2904 171.797 51.4709 171.723 51.6194Z" fill="url(#paint5_linear_3341_67422)"/>
<path fill-rule="evenodd" clip-rule="evenodd" d="M192.038 42.959C192.187 43.0333 192.247 43.2138 192.172 43.3623L190.147 47.41C190.073 47.5585 189.893 47.6186 189.744 47.5443C189.596 47.4701 189.535 47.2895 189.61 47.1411L191.635 43.0933C191.709 42.9449 191.89 42.8847 192.038 42.959Z" fill="url(#paint6_linear_3341_67422)"/>
<path fill-rule="evenodd" clip-rule="evenodd" d="M201.731 67.0139C201.656 67.1624 201.476 67.2225 201.327 67.1482L197.28 65.1232C197.131 65.0489 197.071 64.8684 197.145 64.7199C197.22 64.5714 197.4 64.5113 197.549 64.5856L201.596 66.6106C201.745 66.6849 201.805 66.8654 201.731 67.0139Z" fill="url(#paint7_linear_3341_67422)"/>
<path d="M173.962 148.358C169.336 151.89 164.017 153.947 158.441 155.399C152.256 157.011 145.946 157.895 139.597 158.541C131.401 159.372 123.183 159.785 114.946 159.85C114.755 159.852 104.009 159.852 103.765 159.85C98.7046 159.799 93.648 159.67 88.5982 159.372C85.9216 159.212 74.2702 158.362 71.1284 158.01C66.8935 157.532 62.6677 156.982 58.4951 156.082C53.0726 154.939 47.9049 152.812 43.2475 149.805C38.9504 147.021 35.3263 143.57 32.9449 138.95C30.2729 133.767 30.1208 128.318 31.3496 122.768C33.8184 111.627 42.9271 105.666 51.662 104.567C58.4167 103.818 53.9842 103.451 57.3238 95.1532C64.4007 77.5546 89.857 75.1041 91.366 86.4217C101.929 87.9755 95.6579 87.0159 102.612 87.8341C109.567 88.6522 107.904 88.3064 111.146 88.3064C114.388 88.3064 113.69 89.9997 115.13 88.3064C123.698 78.2275 133.454 76.8935 138.897 93.0661C140.458 97.5471 150.242 98.4016 147.484 99.3068C148.911 98.8384 155.897 100.485 157.374 100.211C160.382 94.1494 169.557 104.064 175.401 109.817C179.854 114.201 182.289 119.818 183.119 126.076C184.335 135.22 181.34 142.727 173.962 148.358Z" fill="white"/>
<path d="M106.241 124.528C111.6 124.528 115.944 120.064 115.944 128.302C115.944 136.541 111.6 143.219 106.241 143.219C100.883 143.219 96.5391 136.541 96.5391 128.302C96.5391 120.064 100.883 124.528 106.241 124.528Z" fill="#A84649"/>
<g filter="url(#filter1_d_3341_67422)">
<path d="M106.233 123.448C109.821 123.448 112.807 121.068 112.807 123.157C112.807 125.246 109.822 126.467 106.233 126.467C102.644 126.467 99.8125 125.246 99.8125 123.157C99.8125 121.068 102.645 123.448 106.233 123.448Z" fill="white"/>
</g>
<g filter="url(#filter2_d_3341_67422)">
<path fill-rule="evenodd" clip-rule="evenodd" d="M112.65 122.875C112.836 122.808 113.041 122.903 113.109 123.089C113.177 123.275 113.081 123.481 112.895 123.549L112.772 123.212C112.895 123.549 112.895 123.549 112.895 123.549L112.894 123.549L112.892 123.55L112.884 123.553L112.854 123.564C112.828 123.573 112.79 123.586 112.74 123.603C112.641 123.637 112.497 123.685 112.314 123.742C111.949 123.856 111.429 124.009 110.808 124.161C109.567 124.464 107.908 124.771 106.258 124.771C104.608 124.771 102.973 124.464 101.756 124.16C101.147 124.008 100.639 123.856 100.283 123.741C100.105 123.684 99.9643 123.636 99.868 123.602C99.8198 123.585 99.7826 123.572 99.7571 123.563L99.7279 123.552L99.7201 123.549L99.7179 123.548L99.717 123.548C99.7169 123.548 99.7169 123.548 99.8429 123.212L99.717 123.548C99.5317 123.478 99.4377 123.271 99.5074 123.086C99.577 122.901 99.7836 122.807 99.969 122.876M99.969 122.876L99.9705 122.877L99.9765 122.879L100.002 122.889C100.025 122.897 100.06 122.909 100.105 122.925C100.196 122.957 100.331 123.003 100.502 123.058C100.846 123.169 101.338 123.317 101.93 123.465C103.117 123.761 104.689 124.054 106.258 124.054C107.827 124.054 109.425 123.761 110.637 123.464C111.242 123.316 111.747 123.168 112.1 123.058C112.277 123.002 112.415 122.956 112.509 122.924C112.556 122.908 112.592 122.896 112.615 122.888L112.642 122.878L112.648 122.876L112.65 122.875" fill="white"/>
</g>
<path d="M106.307 139.317C106.964 139.321 107.138 138.699 107.643 138.751C109.225 138.903 110.759 139.377 112.15 140.145C112.15 140.145 109.885 143.234 106.308 143.279C102.73 143.324 100.375 140.2 100.375 140.2C101.828 139.391 103.435 138.898 105.091 138.751C105.419 138.717 105.65 139.312 106.307 139.317Z" fill="#F8AFAF"/>
<path d="M88.224 112.301C89.6571 112.301 91.0315 112.87 92.0449 113.883C93.0583 114.897 93.6276 116.271 93.6276 117.704C93.6276 120.689 91.2083 118.699 88.224 118.699C85.2396 118.699 82.8203 120.689 82.8203 117.704C82.8203 116.271 83.3896 114.897 84.403 113.883C85.4164 112.87 86.7908 112.301 88.224 112.301V112.301Z" fill="#574A74"/>
<path d="M90.7705 117.705C92.1797 117.705 93.3222 116.563 93.3222 115.153C93.3222 113.744 92.1797 112.602 90.7705 112.602C89.3612 112.602 88.2188 113.744 88.2188 115.153C88.2188 116.563 89.3612 117.705 90.7705 117.705Z" fill="white"/>
<path d="M88.6691 120.707C88.9177 120.707 89.1194 120.506 89.1194 120.257C89.1194 120.008 88.9177 119.807 88.6691 119.807C88.4204 119.807 88.2188 120.008 88.2188 120.257C88.2188 120.506 88.4204 120.707 88.6691 120.707Z" fill="white"/>
<path d="M87.1757 119.806C87.756 119.806 88.2264 119.336 88.2264 118.756C88.2264 118.175 87.756 117.705 87.1757 117.705C86.5954 117.705 86.125 118.175 86.125 118.756C86.125 119.336 86.5954 119.806 87.1757 119.806Z" fill="white"/>
<path d="M124.552 112.301C125.985 112.301 127.36 112.87 128.373 113.883C129.386 114.897 129.956 116.271 129.956 117.704C129.956 120.689 127.536 118.698 124.552 118.698C121.568 118.698 119.148 120.689 119.148 117.704C119.148 116.271 119.718 114.897 120.731 113.883C121.745 112.87 123.119 112.301 124.552 112.301V112.301Z" fill="#574A74"/>
<path d="M127.099 117.705C128.508 117.705 129.65 116.563 129.65 115.153C129.65 113.744 128.508 112.602 127.099 112.602C125.689 112.602 124.547 113.744 124.547 115.153C124.547 116.563 125.689 117.705 127.099 117.705Z" fill="white"/>
<path d="M123.504 119.806C124.084 119.806 124.555 119.336 124.555 118.756C124.555 118.175 124.084 117.705 123.504 117.705C122.924 117.705 122.453 118.175 122.453 118.756C122.453 119.336 122.924 119.806 123.504 119.806Z" fill="white"/>
<path d="M124.997 120.707C125.246 120.707 125.447 120.506 125.447 120.257C125.447 120.008 125.246 119.807 124.997 119.807C124.748 119.807 124.547 120.008 124.547 120.257C124.547 120.506 124.748 120.707 124.997 120.707Z" fill="white"/>
<path d="M150.346 45.9035L147.345 36.4737C146.618 36.5565 145.906 36.5199 145.311 36.3032C145.064 36.2135 144.825 36.1463 144.57 36.0853C144.284 36.0168 144.027 35.9017 143.761 35.8007L142.422 49.1034L145.143 50.5254C146.522 51.2463 148.205 50.9885 149.347 49.8817C150.401 48.8589 150.792 47.3054 150.346 45.9035Z" fill="#606ED5"/>
<path d="M144.562 38.6697L149.762 44.0506L145.292 30.0025C144.847 28.607 143.729 27.5598 142.338 27.2362L138.108 26.2524C135.637 25.6776 133.08 26.9321 131.927 29.2856L104.421 85.4142L144.485 94.7322L144.562 38.6697Z" fill="#6C91E8"/>
<path d="M139.788 90.7264L141.894 34.6919C141.927 33.8026 142.741 33.1552 143.58 33.3502C144.195 33.4934 144.628 34.055 144.627 34.7075L144.487 94.7322L139.788 90.7264Z" fill="#86ABFF"/>
<path d="M137.204 28.4873C137.725 27.1988 139.07 26.4762 140.38 26.7807L138.108 26.2524C135.637 25.6776 133.08 26.9321 131.926 29.2855L104.421 85.4142L109.953 86.701L114.412 84.8249L137.204 28.4873Z" fill="#606ED5"/>
<path d="M145.058 84.545C145.056 84.3992 144.974 84.2689 144.845 84.2097C144.844 84.2093 144.844 84.209 144.843 84.2087C139.74 81.8518 133.955 79.1809 127.338 77.642C120.722 76.1031 114.352 75.9471 108.732 75.8101C108.731 75.81 108.731 75.81 108.73 75.81C108.589 75.8067 108.457 75.8871 108.391 76.0172L103.092 86.5648L108.753 87.8816C113.847 88.0176 119.1 88.2605 124.573 89.5332C130.045 90.806 134.866 92.9062 139.497 95.032L145.159 96.3487L145.058 84.545Z" fill="#FFC83C"/>
<path d="M108.734 75.8062C108.733 75.8062 108.733 75.8062 108.732 75.8062C108.591 75.8029 108.459 75.8832 108.393 76.0134L103.442 85.8689L109.95 86.6991L114.408 84.8231L117.889 76.2179C114.687 75.9548 111.611 75.8764 108.734 75.8062Z" fill="#FFB432"/>
<path d="M148.685 99.9221C144.45 98.9071 144.444 98.7653 140.118 96.8907C135.103 94.7168 129.918 92.4692 123.89 91.0246C117.863 89.5799 112.056 89.1929 106.44 88.8187C99.1283 88.3319 93.1004 86.5349 92.3038 86.1256C91.0065 85.4589 90.7434 84.1083 91.5314 83.0108C92.3185 81.9132 93.7449 81.7946 95.0415 82.4636C99.551 84.7822 99.9386 83.7193 106.869 84.1819C112.477 84.5555 118.835 84.9794 125.385 86.5495C131.936 88.1195 137.613 90.5799 142.621 92.7508C148.809 95.433 149.993 96.0848 155.268 96.1107C156.789 96.1171 158.336 96.9746 158.327 98.2587C158.319 99.5431 156.75 100.415 155.233 100.408C153.011 100.397 150.842 100.439 148.685 99.9221Z" fill="#425ABC"/>
<path d="M155.276 96.112C150 96.086 148.666 95.347 142.478 92.6648C137.47 90.4939 131.793 88.0336 125.242 86.4635C118.692 84.8934 112.334 84.4695 106.726 84.096C99.7958 83.6333 99.2711 83.8291 94.8313 82.3922C93.7379 81.828 92.424 82.1565 91.5485 82.879C91.2965 83.5807 92.0975 83.9769 92.736 84.3051C98.6569 86.0127 99.7331 86.0083 107.045 86.4951C112.661 86.8695 118.468 87.2564 124.495 88.701C130.522 90.1456 135.708 92.3931 140.723 94.5671C145.049 96.4417 145.205 96.6707 149.44 97.6858C151.597 98.2028 153.772 98.514 155.994 98.5251C156.741 98.5289 157.419 98.2782 157.916 97.8711C157.617 96.8673 156.558 96.1174 155.276 96.112Z" fill="#606ED5"/>
</g>
<defs>
<filter id="filter0_d_3341_67422" x="0.609375" y="0.113281" width="231.156" height="193.738" filterUnits="userSpaceOnUse" color-interpolation-filters="sRGB">
<feFlood flood-opacity="0" result="BackgroundImageFix"/>
<feColorMatrix in="SourceAlpha" type="matrix" values="0 0 0 0 0 0 0 0 0 0 0 0 0 0 0 0 0 0 127 0" result="hardAlpha"/>
<feOffset dy="4"/>
<feGaussianBlur stdDeviation="15"/>
<feComposite in2="hardAlpha" operator="out"/>
<feColorMatrix type="matrix" values="0 0 0 0 0.910434 0 0 0 0 0.925012 0 0 0 0 0.954167 0 0 0 1 0"/>
<feBlend mode="normal" in2="BackgroundImageFix" result="effect1_dropShadow_3341_67422"/>
<feBlend mode="normal" in="SourceGraphic" in2="effect1_dropShadow_3341_67422" result="shape"/>
</filter>
<filter id="filter1_d_3341_67422" x="93.8125" y="119.299" width="24.9922" height="16.168" filterUnits="userSpaceOnUse" color-interpolation-filters="sRGB">
<feFlood flood-opacity="0" result="BackgroundImageFix"/>
<feColorMatrix in="SourceAlpha" type="matrix" values="0 0 0 0 0 0 0 0 0 0 0 0 0 0 0 0 0 0 127 0" result="hardAlpha"/>
<feOffset dy="3"/>
<feGaussianBlur stdDeviation="3"/>
<feColorMatrix type="matrix" values="0 0 0 0 0 0 0 0 0 0 0 0 0 0 0 0 0 0 0.161 0"/>
<feBlend mode="normal" in2="BackgroundImageFix" result="effect1_dropShadow_3341_67422"/>
<feBlend mode="normal" in="SourceGraphic" in2="effect1_dropShadow_3341_67422" result="shape"/>
</filter>
<filter id="filter2_d_3341_67422" x="98.4844" y="122.854" width="15.6484" height="4.21797" filterUnits="userSpaceOnUse" color-interpolation-filters="sRGB">
<feFlood flood-opacity="0" result="BackgroundImageFix"/>
<feColorMatrix in="SourceAlpha" type="matrix" values="0 0 0 0 0 0 0 0 0 0 0 0 0 0 0 0 0 0 127 0" result="hardAlpha"/>
<feOffset dy="1.3"/>
<feGaussianBlur stdDeviation="0.5"/>
<feColorMatrix type="matrix" values="0 0 0 0 0.596078 0 0 0 0 0.596078 0 0 0 0 0.596078 0 0 0 0.678 0"/>
<feBlend mode="normal" in2="BackgroundImageFix" result="effect1_dropShadow_3341_67422"/>
<feBlend mode="normal" in="SourceGraphic" in2="effect1_dropShadow_3341_67422" result="shape"/>
</filter>
<linearGradient id="paint0_linear_3341_67422" x1="190.139" y1="54.0625" x2="175.345" y2="70.9915" gradientUnits="userSpaceOnUse">
<stop stop-color="#FFD600"/>
<stop offset="1" stop-color="#FFAF65"/>
</linearGradient>
<linearGradient id="paint1_linear_3341_67422" x1="179.735" y1="44.8203" x2="178.517" y2="45.3329" gradientUnits="userSpaceOnUse">
<stop stop-color="#FFD600"/>
<stop offset="1" stop-color="#FFAF65"/>
</linearGradient>
<linearGradient id="paint2_linear_3341_67422" x1="171.568" y1="58.1934" x2="170.074" y2="63.2382" gradientUnits="userSpaceOnUse">
<stop stop-color="#FFD600"/>
<stop offset="1" stop-color="#FFAF65"/>
</linearGradient>
<linearGradient id="paint3_linear_3341_67422" x1="199.699" y1="53.5773" x2="199.923" y2="55.7684" gradientUnits="userSpaceOnUse">
<stop stop-color="#FFD600"/>
<stop offset="1" stop-color="#FFAF65"/>
</linearGradient>
<linearGradient id="paint4_linear_3341_67422" x1="193.262" y1="69.81" x2="190.154" y2="71.7487" gradientUnits="userSpaceOnUse">
<stop stop-color="#FFD600"/>
<stop offset="1" stop-color="#FFAF65"/>
</linearGradient>
<linearGradient id="paint5_linear_3341_67422" x1="170.739" y1="49.1106" x2="168.198" y2="52.0171" gradientUnits="userSpaceOnUse">
<stop stop-color="#FFD600"/>
<stop offset="1" stop-color="#FFAF65"/>
</linearGradient>
<linearGradient id="paint6_linear_3341_67422" x1="192.2" y1="43.8899" x2="189.659" y2="46.7964" gradientUnits="userSpaceOnUse">
<stop stop-color="#FFD600"/>
<stop offset="1" stop-color="#FFAF65"/>
</linearGradient>
<linearGradient id="paint7_linear_3341_67422" x1="200.746" y1="64.5052" x2="198.206" y2="67.4116" gradientUnits="userSpaceOnUse">
<stop stop-color="#FFD600"/>
<stop offset="1" stop-color="#FFAF65"/>
</linearGradient>
</defs>
</svg>
